<?xml version="1.0" encoding="UTF-8" standalone="no"?>
<!-- Created with Inkscape (http://www.inkscape.org/) -->

<svg
   xmlns:dc="http://purl.org/dc/elements/1.1/"
   xmlns:cc="http://creativecommons.org/ns#"
   xmlns:rdf="http://www.w3.org/1999/02/22-rdf-syntax-ns#"
   xmlns:svg="http://www.w3.org/2000/svg"
   xmlns="http://www.w3.org/2000/svg"
   xmlns:sodipodi="http://sodipodi.sourceforge.net/DTD/sodipodi-0.dtd"
   xmlns:inkscape="http://www.inkscape.org/namespaces/inkscape"
   width="328.14285"
   height="393.85712"
   id="svg2"
   version="1.1"
   inkscape:version="0.48.4 r9939"
   sodipodi:docname="intro.pdf">
  <defs
     id="defs4">
    <marker
       inkscape:stockid="Arrow1Lstart"
       orient="auto"
       refY="0"
       refX="0"
       id="Arrow1Lstart"
       style="overflow:visible">
      <path
         id="path4085"
         d="M 0,0 5,-5 -12.5,0 5,5 0,0 z"
         style="fill-rule:evenodd;stroke:#000000;stroke-width:1pt"
         transform="matrix(0.8,0,0,0.8,10,0)"
         inkscape:connector-curvature="0" />
    </marker>
    <marker
       inkscape:stockid="Arrow1Lend"
       orient="auto"
       refY="0"
       refX="0"
       id="Arrow1Lend"
       style="overflow:visible">
      <path
         id="path4088"
         d="M 0,0 5,-5 -12.5,0 5,5 0,0 z"
         style="fill-rule:evenodd;stroke:#000000;stroke-width:1pt"
         transform="matrix(-0.8,0,0,-0.8,-10,0)"
         inkscape:connector-curvature="0" />
    </marker>
  </defs>
  <sodipodi:namedview
     id="base"
     pagecolor="#ffffff"
     bordercolor="#666666"
     borderopacity="1.0"
     inkscape:pageopacity="0.0"
     inkscape:pageshadow="2"
     inkscape:zoom="1.4"
     inkscape:cx="-0.49618847"
     inkscape:cy="240.64637"
     inkscape:document-units="px"
     inkscape:current-layer="layer1"
     showgrid="false"
     inkscape:object-paths="true"
     inkscape:snap-intersection-paths="true"
     inkscape:object-nodes="true"
     inkscape:snap-smooth-nodes="true"
     inkscape:snap-midpoints="true"
     inkscape:snap-nodes="true"
     inkscape:snap-object-midpoints="true"
     fit-margin-top="0"
     fit-margin-left="0"
     fit-margin-right="0"
     fit-margin-bottom="0"
     inkscape:window-width="1598"
     inkscape:window-height="879"
     inkscape:window-x="0"
     inkscape:window-y="19"
     inkscape:window-maximized="0" />
  <metadata
     id="metadata7">
    <rdf:RDF>
      <cc:Work
         rdf:about="">
        <dc:format>image/svg+xml</dc:format>
        <dc:type
           rdf:resource="http://purl.org/dc/dcmitype/StillImage" />
        <dc:title></dc:title>
      </cc:Work>
    </rdf:RDF>
  </metadata>
  <g
     inkscape:label="Layer 1"
     inkscape:groupmode="layer"
     id="layer1"
     transform="translate(-210.21429,-82.576476)">
    <path
       sodipodi:type="arc"
       style="fill:#787878;fill-opacity:1;stroke:#000000;stroke-width:1;stroke-miterlimit:4;stroke-opacity:1;stroke-dasharray:none;stroke-dashoffset:0"
       id="path2985"
       sodipodi:cx="202.14285"
       sodipodi:cy="251.6479"
       sodipodi:rx="12.142858"
       sodipodi:ry="12.142858"
       d="m 214.28571,251.6479 c 0,6.70632 -5.43654,12.14286 -12.14286,12.14286 -6.70631,0 -12.14285,-5.43654 -12.14285,-12.14286 0,-6.70631 5.43654,-12.14285 12.14285,-12.14285 6.70632,0 12.14286,5.43654 12.14286,12.14285 z"
       transform="translate(28.571429,47.142857)" />
    <path
       transform="translate(183.57143,157.85714)"
       sodipodi:type="arc"
       style="fill:#787878;fill-opacity:1;stroke:#000000;stroke-width:1;stroke-miterlimit:4;stroke-opacity:1;stroke-dasharray:none;stroke-dashoffset:0"
       id="path2985-7"
       sodipodi:cx="202.14285"
       sodipodi:cy="251.6479"
       sodipodi:rx="12.142858"
       sodipodi:ry="12.142858"
       d="m 214.28571,251.6479 c 0,6.70632 -5.43654,12.14286 -12.14286,12.14286 -6.70631,0 -12.14285,-5.43654 -12.14285,-12.14286 0,-6.70631 5.43654,-12.14285 12.14285,-12.14285 6.70632,0 12.14286,5.43654 12.14286,12.14285 z" />
    <path
       transform="translate(20.71429,200.71428)"
       sodipodi:type="arc"
       style="fill:#787878;fill-opacity:1;stroke:#000000;stroke-width:1;stroke-miterlimit:4;stroke-opacity:1;stroke-dasharray:none;stroke-dashoffset:0"
       id="path2985-6"
       sodipodi:cx="202.14285"
       sodipodi:cy="251.6479"
       sodipodi:rx="12.142858"
       sodipodi:ry="12.142858"
       d="m 214.28571,251.6479 c 0,6.70632 -5.43654,12.14286 -12.14286,12.14286 -6.70631,0 -12.14285,-5.43654 -12.14285,-12.14286 0,-6.70631 5.43654,-12.14285 12.14285,-12.14285 6.70632,0 12.14286,5.43654 12.14286,12.14285 z" />
    <path
       transform="translate(162.14286,-6.4285782)"
       sodipodi:type="arc"
       style="fill:#787878;fill-opacity:1;stroke:#000000;stroke-width:1;stroke-miterlimit:4;stroke-opacity:1;stroke-dasharray:none;stroke-dashoffset:0"
       id="path2985-5"
       sodipodi:cx="202.14285"
       sodipodi:cy="251.6479"
       sodipodi:rx="12.142858"
       sodipodi:ry="12.142858"
       d="m 214.28571,251.6479 c 0,6.70632 -5.43654,12.14286 -12.14286,12.14286 -6.70631,0 -12.14285,-5.43654 -12.14285,-12.14286 0,-6.70631 5.43654,-12.14285 12.14285,-12.14285 6.70632,0 12.14286,5.43654 12.14286,12.14285 z" />
    <path
       transform="translate(159.28572,-156.42857)"
       sodipodi:type="arc"
       style="fill:#787878;fill-opacity:1;stroke:#000000;stroke-width:1;stroke-miterlimit:4;stroke-opacity:1;stroke-dasharray:none;stroke-dashoffset:0"
       id="path2985-70"
       sodipodi:cx="202.14285"
       sodipodi:cy="251.6479"
       sodipodi:rx="12.142858"
       sodipodi:ry="12.142858"
       d="m 214.28571,251.6479 c 0,6.70632 -5.43654,12.14286 -12.14286,12.14286 -6.70631,0 -12.14285,-5.43654 -12.14285,-12.14286 0,-6.70631 5.43654,-12.14285 12.14285,-12.14285 6.70632,0 12.14286,5.43654 12.14286,12.14285 z" />
    <path
       transform="translate(280.71429,-93.571434)"
       sodipodi:type="arc"
       style="fill:#787878;fill-opacity:1;stroke:#000000;stroke-width:1;stroke-miterlimit:4;stroke-opacity:1;stroke-dasharray:none;stroke-dashoffset:0"
       id="path2985-2"
       sodipodi:cx="202.14285"
       sodipodi:cy="251.6479"
       sodipodi:rx="12.142858"
       sodipodi:ry="12.142858"
       d="m 214.28571,251.6479 c 0,6.70632 -5.43654,12.14286 -12.14286,12.14286 -6.70631,0 -12.14285,-5.43654 -12.14285,-12.14286 0,-6.70631 5.43654,-12.14285 12.14285,-12.14285 6.70632,0 12.14286,5.43654 12.14286,12.14285 z" />
    <path
       transform="translate(30.714299,-136.42857)"
       sodipodi:type="arc"
       style="fill:#787878;fill-opacity:1;stroke:#000000;stroke-width:1;stroke-miterlimit:4;stroke-opacity:1;stroke-dasharray:none;stroke-dashoffset:0"
       id="path2985-93"
       sodipodi:cx="202.14285"
       sodipodi:cy="251.6479"
       sodipodi:rx="12.142858"
       sodipodi:ry="12.142858"
       d="m 214.28571,251.6479 c 0,6.70632 -5.43654,12.14286 -12.14286,12.14286 -6.70631,0 -12.14285,-5.43654 -12.14285,-12.14286 0,-6.70631 5.43654,-12.14285 12.14285,-12.14285 6.70632,0 12.14286,5.43654 12.14286,12.14285 z" />
    <path
       transform="translate(323.57143,52.14285)"
       sodipodi:type="arc"
       style="fill:#787878;fill-opacity:1;stroke:#000000;stroke-width:1;stroke-miterlimit:4;stroke-opacity:1;stroke-dasharray:none;stroke-dashoffset:0"
       id="path2985-1"
       sodipodi:cx="202.14285"
       sodipodi:cy="251.6479"
       sodipodi:rx="12.142858"
       sodipodi:ry="12.142858"
       d="m 214.28571,251.6479 c 0,6.70632 -5.43654,12.14286 -12.14286,12.14286 -6.70631,0 -12.14285,-5.43654 -12.14285,-12.14286 0,-6.70631 5.43654,-12.14285 12.14285,-12.14285 6.70632,0 12.14286,5.43654 12.14286,12.14285 z" />
    <path
       transform="translate(302.14286,212.14284)"
       sodipodi:type="arc"
       style="fill:#787878;fill-opacity:1;stroke:#000000;stroke-width:1;stroke-miterlimit:4;stroke-opacity:1;stroke-dasharray:none;stroke-dashoffset:0"
       id="path2985-3"
       sodipodi:cx="202.14285"
       sodipodi:cy="251.6479"
       sodipodi:rx="12.142858"
       sodipodi:ry="12.142858"
       d="m 214.28571,251.6479 c 0,6.70632 -5.43654,12.14286 -12.14286,12.14286 -6.70631,0 -12.14285,-5.43654 -12.14285,-12.14286 0,-6.70631 5.43654,-12.14285 12.14285,-12.14285 6.70632,0 12.14286,5.43654 12.14286,12.14285 z" />
    <path
       style="fill:none;stroke:#000000;stroke-width:1px;stroke-linecap:butt;stroke-linejoin:miter;stroke-opacity:1;marker-start:url(#Arrow1Lstart);marker-end:url(#Arrow1Lend)"
       d="M 139.21402,14.509564 34.643123,30.776147"
       id="path8639"
       inkscape:connector-curvature="0"
       transform="translate(210.21429,82.576476)" />
    <path
       style="fill:none;stroke:#000000;stroke-width:1px;stroke-linecap:butt;stroke-linejoin:miter;stroke-opacity:1;marker-start:url(#Arrow1Lstart)"
       d="M 276.07005,87.152473 312.07279,209.5618"
       id="path10665"
       inkscape:connector-curvature="0"
       transform="translate(210.21429,82.576476)" />
    <path
       style="fill:none;stroke:#000000;stroke-width:1px;stroke-linecap:butt;stroke-linejoin:miter;stroke-opacity:1;marker-start:url(#Arrow1Lstart)"
       d="M 162.00023,18.226174 261.8569,69.916679"
       id="path11773"
       inkscape:connector-curvature="0"
       transform="translate(210.21429,82.576476)" />
    <path
       style="fill:none;stroke:#000000;stroke-width:1px;stroke-linecap:butt;stroke-linejoin:miter;stroke-opacity:1;marker-end:url(#Arrow1Lend);marker-start:url(#Arrow1Lstart)"
       d="M 313.88792,233.25107 295.68349,369.17748"
       id="path11777"
       inkscape:connector-curvature="0"
       transform="translate(210.21429,82.576476)" />
    <path
       style="fill:none;stroke:#000000;stroke-width:1px;stroke-linecap:butt;stroke-linejoin:miter;stroke-opacity:1;marker-start:url(#Arrow1Lstart)"
       d="M 283.028,376.15824 186.54342,331.98459"
       id="path11779"
       inkscape:connector-curvature="0"
       transform="translate(210.21429,82.576476)" />
    <path
       style="fill:none;stroke:#000000;stroke-width:1px;stroke-linecap:butt;stroke-linejoin:miter;stroke-opacity:1;marker-end:none;marker-start:url(#Arrow1Lstart)"
       d="M 163.75407,330.0196 24.388778,366.69467"
       id="path11781"
       inkscape:connector-curvature="0"
       transform="translate(210.21429,82.576476)" />
    <path
       style="fill:none;stroke:#000000;stroke-width:1px;stroke-linecap:butt;stroke-linejoin:miter;stroke-opacity:1;marker-end:url(#Arrow1Lend);marker-start:url(#Arrow1Lstart)"
       d="m 155.64214,174.68505 18.28713,140.20132"
       id="path11783"
       inkscape:connector-curvature="0"
       transform="translate(210.21429,82.576476)" />
    <path
       style="fill:none;stroke:#000000;stroke-width:1px;stroke-linecap:butt;stroke-linejoin:miter;stroke-opacity:1;marker-end:url(#Arrow1Lend)"
       d="M 304.08216,217.07152 165.48925,166.78561"
       id="path11785"
       inkscape:connector-curvature="0"
       transform="translate(210.21429,82.576476)" />
    <path
       style="fill:none;stroke:#000000;stroke-width:1px;stroke-linecap:butt;stroke-linejoin:miter;stroke-opacity:1;marker-end:url(#Arrow1Lend)"
       d="M 262.85764,82.691531 163.85663,155.45131"
       id="path11789"
       inkscape:connector-curvature="0"
       transform="translate(210.21429,82.576476)" />
    <path
       style="fill:none;stroke:#000000;stroke-width:1px;stroke-linecap:butt;stroke-linejoin:miter;stroke-opacity:1;marker-end:url(#Arrow1Lend)"
       d="M 31.275951,41.182108 145.43833,154.1036"
       id="path11791"
       inkscape:connector-curvature="0"
       transform="translate(210.21429,82.576476)" />
    <path
       style="fill:none;stroke:#000000;stroke-width:1px;stroke-linecap:butt;stroke-linejoin:miter;stroke-opacity:1;marker-start:url(#Arrow1Lstart);marker-end:url(#Arrow1Lend)"
       d="M 22.501123,44.784905 20.641727,204.07224"
       id="path11793"
       inkscape:connector-curvature="0"
       transform="translate(210.21429,82.576476)" />
    <path
       style="fill:none;stroke:#000000;stroke-width:1px;stroke-linecap:butt;stroke-linejoin:miter;stroke-opacity:1;marker-start:url(#Arrow1Lstart);marker-end:url(#Arrow1Lend)"
       d="m 19.879525,228.34156 -6.61621,129.31687"
       id="path11795"
       inkscape:connector-curvature="0"
       transform="translate(210.21429,82.576476)" />
    <path
       style="fill:none;stroke:#000000;stroke-width:1px;stroke-linecap:butt;stroke-linejoin:miter;stroke-opacity:1;marker-start:url(#Arrow1Lstart)"
       d="M 19.490461,359.75638 147.22381,172.67218"
       id="path11797"
       inkscape:connector-curvature="0"
       transform="translate(210.21429,82.576476)" />
  </g>
</svg>
