<?xml version="1.0" encoding="UTF-8" standalone="no"?>
<!-- Created with Inkscape (http://www.inkscape.org/) -->

<svg
   xmlns:dc="http://purl.org/dc/elements/1.1/"
   xmlns:cc="http://creativecommons.org/ns#"
   xmlns:rdf="http://www.w3.org/1999/02/22-rdf-syntax-ns#"
   xmlns:svg="http://www.w3.org/2000/svg"
   xmlns="http://www.w3.org/2000/svg"
   xmlns:sodipodi="http://sodipodi.sourceforge.net/DTD/sodipodi-0.dtd"
   xmlns:inkscape="http://www.inkscape.org/namespaces/inkscape"
   width="632.40625"
   height="375.8125"
   id="svg2"
   version="1.1"
   inkscape:version="0.48.4 r9939"
   sodipodi:docname="oracle1.pdf">
  <defs
     id="defs4">
    <marker
       inkscape:stockid="Arrow1Lend"
       orient="auto"
       refY="0.0"
       refX="0.0"
       id="Arrow1Lend"
       style="overflow:visible;">
      <path
         id="path4088"
         d="M 0.0,0.0 L 5.0,-5.0 L -12.5,0.0 L 5.0,5.0 L 0.0,0.0 z "
         style="fill-rule:evenodd;stroke:#000000;stroke-width:1.0pt;"
         transform="scale(0.8) rotate(180) translate(12.5,0)" />
    </marker>
    <marker
       inkscape:stockid="Arrow2Lend"
       orient="auto"
       refY="0.0"
       refX="0.0"
       id="Arrow2Lend"
       style="overflow:visible;">
      <path
         id="path4106"
         style="fill-rule:evenodd;stroke-width:0.62500000;stroke-linejoin:round;"
         d="M 8.7185878,4.0337352 L -2.2072895,0.016013256 L 8.7185884,-4.0017078 C 6.9730900,-1.6296469 6.9831476,1.6157441 8.7185878,4.0337352 z "
         transform="scale(1.1) rotate(180) translate(1,0)" />
    </marker>
    <marker
       inkscape:stockid="Arrow1Send"
       orient="auto"
       refY="0"
       refX="0"
       id="Arrow1Send"
       style="overflow:visible">
      <path
         id="path4156"
         d="M 0,0 5,-5 -12.5,0 5,5 0,0 z"
         style="fill-rule:evenodd;stroke:#000000;stroke-width:1pt"
         transform="matrix(-0.2,0,0,-0.2,-1.2,0)"
         inkscape:connector-curvature="0" />
    </marker>
    <marker
       inkscape:stockid="Arrow2Send"
       orient="auto"
       refY="0"
       refX="0"
       id="Arrow2Send"
       style="overflow:visible">
      <path
         id="path4174"
         style="fill-rule:evenodd;stroke-width:0.625;stroke-linejoin:round"
         d="M 8.7185878,4.0337352 -2.2072895,0.01601326 8.7185884,-4.0017078 c -1.7454984,2.3720609 -1.7354408,5.6174519 -6e-7,8.035443 z"
         transform="matrix(-0.3,0,0,-0.3,0.69,0)"
         inkscape:connector-curvature="0" />
    </marker>
    <marker
       inkscape:stockid="Arrow1Mend"
       orient="auto"
       refY="0"
       refX="0"
       id="Arrow1Mend"
       style="overflow:visible">
      <path
         id="path4150"
         d="M 0,0 5,-5 -12.5,0 5,5 0,0 z"
         style="fill-rule:evenodd;stroke:#000000;stroke-width:1pt"
         transform="matrix(-0.4,0,0,-0.4,-4,0)"
         inkscape:connector-curvature="0" />
    </marker>
    <marker
       inkscape:stockid="Arrow1Send"
       orient="auto"
       refY="0"
       refX="0"
       id="Arrow1Send-2"
       style="overflow:visible">
      <path
         inkscape:connector-curvature="0"
         id="path4156-0"
         d="M 0,0 5,-5 -12.5,0 5,5 0,0 z"
         style="fill-rule:evenodd;stroke:#000000;stroke-width:1pt"
         transform="matrix(-0.2,0,0,-0.2,-1.2,0)" />
    </marker>
    <marker
       inkscape:stockid="Arrow2Send"
       orient="auto"
       refY="0"
       refX="0"
       id="Arrow2Send-1"
       style="overflow:visible">
      <path
         inkscape:connector-curvature="0"
         id="path4174-2"
         style="fill-rule:evenodd;stroke-width:0.625;stroke-linejoin:round"
         d="M 8.7185878,4.0337352 -2.2072895,0.01601326 8.7185884,-4.0017078 c -1.7454984,2.3720609 -1.7354408,5.6174519 -6e-7,8.035443 z"
         transform="matrix(-0.3,0,0,-0.3,0.69,0)" />
    </marker>
    <marker
       inkscape:stockid="Arrow2Send"
       orient="auto"
       refY="0"
       refX="0"
       id="Arrow2Send-4"
       style="overflow:visible">
      <path
         inkscape:connector-curvature="0"
         id="path4174-7"
         style="fill-rule:evenodd;stroke-width:0.625;stroke-linejoin:round"
         d="M 8.7185878,4.0337352 -2.2072895,0.01601326 8.7185884,-4.0017078 c -1.7454984,2.3720609 -1.7354408,5.6174519 -6e-7,8.035443 z"
         transform="matrix(-0.3,0,0,-0.3,0.69,0)" />
    </marker>
    <marker
       inkscape:stockid="Arrow2Send"
       orient="auto"
       refY="0"
       refX="0"
       id="marker5523"
       style="overflow:visible">
      <path
         inkscape:connector-curvature="0"
         id="path5525"
         style="fill-rule:evenodd;stroke-width:0.625;stroke-linejoin:round"
         d="M 8.7185878,4.0337352 -2.2072895,0.01601326 8.7185884,-4.0017078 c -1.7454984,2.3720609 -1.7354408,5.6174519 -6e-7,8.035443 z"
         transform="matrix(-0.3,0,0,-0.3,0.69,0)" />
    </marker>
    <marker
       inkscape:stockid="Arrow2Send"
       orient="auto"
       refY="0"
       refX="0"
       id="Arrow2Send-0"
       style="overflow:visible">
      <path
         inkscape:connector-curvature="0"
         id="path4174-3"
         style="fill-rule:evenodd;stroke-width:0.625;stroke-linejoin:round"
         d="M 8.7185878,4.0337352 -2.2072895,0.01601326 8.7185884,-4.0017078 c -1.7454984,2.3720609 -1.7354408,5.6174519 -6e-7,8.035443 z"
         transform="matrix(-0.3,0,0,-0.3,0.69,0)" />
    </marker>
    <marker
       inkscape:stockid="Arrow2Send"
       orient="auto"
       refY="0"
       refX="0"
       id="marker5561"
       style="overflow:visible">
      <path
         inkscape:connector-curvature="0"
         id="path5563"
         style="fill-rule:evenodd;stroke-width:0.625;stroke-linejoin:round"
         d="M 8.7185878,4.0337352 -2.2072895,0.01601326 8.7185884,-4.0017078 c -1.7454984,2.3720609 -1.7354408,5.6174519 -6e-7,8.035443 z"
         transform="matrix(-0.3,0,0,-0.3,0.69,0)" />
    </marker>
    <marker
       inkscape:stockid="Arrow2Send"
       orient="auto"
       refY="0"
       refX="0"
       id="Arrow2Send-6"
       style="overflow:visible">
      <path
         inkscape:connector-curvature="0"
         id="path4174-32"
         style="fill-rule:evenodd;stroke-width:0.625;stroke-linejoin:round"
         d="M 8.7185878,4.0337352 -2.2072895,0.01601326 8.7185884,-4.0017078 c -1.7454984,2.3720609 -1.7354408,5.6174519 -6e-7,8.035443 z"
         transform="matrix(-0.3,0,0,-0.3,0.69,0)" />
    </marker>
    <marker
       inkscape:stockid="Arrow2Send"
       orient="auto"
       refY="0"
       refX="0"
       id="marker5561-0"
       style="overflow:visible">
      <path
         inkscape:connector-curvature="0"
         id="path5563-6"
         style="fill-rule:evenodd;stroke-width:0.625;stroke-linejoin:round"
         d="M 8.7185878,4.0337352 -2.2072895,0.01601326 8.7185884,-4.0017078 c -1.7454984,2.3720609 -1.7354408,5.6174519 -6e-7,8.035443 z"
         transform="matrix(-0.3,0,0,-0.3,0.69,0)" />
    </marker>
    <marker
       inkscape:stockid="Arrow2Send"
       orient="auto"
       refY="0"
       refX="0"
       id="Arrow2Send-7"
       style="overflow:visible">
      <path
         inkscape:connector-curvature="0"
         id="path4174-6"
         style="fill-rule:evenodd;stroke-width:0.625;stroke-linejoin:round"
         d="M 8.7185878,4.0337352 -2.2072895,0.01601326 8.7185884,-4.0017078 c -1.7454984,2.3720609 -1.7354408,5.6174519 -6e-7,8.035443 z"
         transform="matrix(-0.3,0,0,-0.3,0.69,0)" />
    </marker>
    <marker
       inkscape:stockid="Arrow2Send"
       orient="auto"
       refY="0"
       refX="0"
       id="marker5561-5"
       style="overflow:visible">
      <path
         inkscape:connector-curvature="0"
         id="path5563-69"
         style="fill-rule:evenodd;stroke-width:0.625;stroke-linejoin:round"
         d="M 8.7185878,4.0337352 -2.2072895,0.01601326 8.7185884,-4.0017078 c -1.7454984,2.3720609 -1.7354408,5.6174519 -6e-7,8.035443 z"
         transform="matrix(-0.3,0,0,-0.3,0.69,0)" />
    </marker>
    <marker
       inkscape:stockid="Arrow2Send"
       orient="auto"
       refY="0"
       refX="0"
       id="Arrow2Send-5"
       style="overflow:visible">
      <path
         inkscape:connector-curvature="0"
         id="path4174-25"
         style="fill-rule:evenodd;stroke-width:0.625;stroke-linejoin:round"
         d="M 8.7185878,4.0337352 -2.2072895,0.01601326 8.7185884,-4.0017078 c -1.7454984,2.3720609 -1.7354408,5.6174519 -6e-7,8.035443 z"
         transform="matrix(-0.3,0,0,-0.3,0.69,0)" />
    </marker>
    <marker
       inkscape:stockid="Arrow2Send"
       orient="auto"
       refY="0"
       refX="0"
       id="marker5637"
       style="overflow:visible">
      <path
         inkscape:connector-curvature="0"
         id="path5639"
         style="fill-rule:evenodd;stroke-width:0.625;stroke-linejoin:round"
         d="M 8.7185878,4.0337352 -2.2072895,0.01601326 8.7185884,-4.0017078 c -1.7454984,2.3720609 -1.7354408,5.6174519 -6e-7,8.035443 z"
         transform="matrix(-0.3,0,0,-0.3,0.69,0)" />
    </marker>
    <marker
       inkscape:stockid="Arrow2Send"
       orient="auto"
       refY="0"
       refX="0"
       id="Arrow2Send-07"
       style="overflow:visible">
      <path
         inkscape:connector-curvature="0"
         id="path4174-8"
         style="fill-rule:evenodd;stroke-width:0.625;stroke-linejoin:round"
         d="M 8.7185878,4.0337352 -2.2072895,0.01601326 8.7185884,-4.0017078 c -1.7454984,2.3720609 -1.7354408,5.6174519 -6e-7,8.035443 z"
         transform="matrix(-0.3,0,0,-0.3,0.69,0)" />
    </marker>
    <marker
       inkscape:stockid="Arrow2Send"
       orient="auto"
       refY="0"
       refX="0"
       id="marker5785"
       style="overflow:visible">
      <path
         inkscape:connector-curvature="0"
         id="path5787"
         style="fill-rule:evenodd;stroke-width:0.625;stroke-linejoin:round"
         d="M 8.7185878,4.0337352 -2.2072895,0.01601326 8.7185884,-4.0017078 c -1.7454984,2.3720609 -1.7354408,5.6174519 -6e-7,8.035443 z"
         transform="matrix(-0.3,0,0,-0.3,0.69,0)" />
    </marker>
    <marker
       inkscape:stockid="Arrow2Send"
       orient="auto"
       refY="0"
       refX="0"
       id="marker5789"
       style="overflow:visible">
      <path
         inkscape:connector-curvature="0"
         id="path5791"
         style="fill-rule:evenodd;stroke-width:0.625;stroke-linejoin:round"
         d="M 8.7185878,4.0337352 -2.2072895,0.01601326 8.7185884,-4.0017078 c -1.7454984,2.3720609 -1.7354408,5.6174519 -6e-7,8.035443 z"
         transform="matrix(-0.3,0,0,-0.3,0.69,0)" />
    </marker>
    <marker
       inkscape:stockid="Arrow2Send"
       orient="auto"
       refY="0"
       refX="0"
       id="marker5793"
       style="overflow:visible">
      <path
         inkscape:connector-curvature="0"
         id="path5795"
         style="fill-rule:evenodd;stroke-width:0.625;stroke-linejoin:round"
         d="M 8.7185878,4.0337352 -2.2072895,0.01601326 8.7185884,-4.0017078 c -1.7454984,2.3720609 -1.7354408,5.6174519 -6e-7,8.035443 z"
         transform="matrix(-0.3,0,0,-0.3,0.69,0)" />
    </marker>
    <marker
       inkscape:stockid="Arrow2Send"
       orient="auto"
       refY="0"
       refX="0"
       id="Arrow2Send-9"
       style="overflow:visible">
      <path
         inkscape:connector-curvature="0"
         id="path4174-26"
         style="fill-rule:evenodd;stroke-width:0.625;stroke-linejoin:round"
         d="M 8.7185878,4.0337352 -2.2072895,0.01601326 8.7185884,-4.0017078 c -1.7454984,2.3720609 -1.7354408,5.6174519 -6e-7,8.035443 z"
         transform="matrix(-0.3,0,0,-0.3,0.69,0)" />
    </marker>
    <marker
       inkscape:stockid="Arrow2Send"
       orient="auto"
       refY="0"
       refX="0"
       id="marker5942"
       style="overflow:visible">
      <path
         inkscape:connector-curvature="0"
         id="path5944"
         style="fill-rule:evenodd;stroke-width:0.625;stroke-linejoin:round"
         d="M 8.7185878,4.0337352 -2.2072895,0.01601326 8.7185884,-4.0017078 c -1.7454984,2.3720609 -1.7354408,5.6174519 -6e-7,8.035443 z"
         transform="matrix(-0.3,0,0,-0.3,0.69,0)" />
    </marker>
    <marker
       inkscape:stockid="Arrow2Send"
       orient="auto"
       refY="0"
       refX="0"
       id="Arrow2Send-50"
       style="overflow:visible">
      <path
         inkscape:connector-curvature="0"
         id="path4174-4"
         style="fill-rule:evenodd;stroke-width:0.625;stroke-linejoin:round"
         d="M 8.7185878,4.0337352 -2.2072895,0.01601326 8.7185884,-4.0017078 c -1.7454984,2.3720609 -1.7354408,5.6174519 -6e-7,8.035443 z"
         transform="matrix(-0.3,0,0,-0.3,0.69,0)" />
    </marker>
    <marker
       inkscape:stockid="Arrow2Send"
       orient="auto"
       refY="0"
       refX="0"
       id="marker5980"
       style="overflow:visible">
      <path
         inkscape:connector-curvature="0"
         id="path5982"
         style="fill-rule:evenodd;stroke-width:0.625;stroke-linejoin:round"
         d="M 8.7185878,4.0337352 -2.2072895,0.01601326 8.7185884,-4.0017078 c -1.7454984,2.3720609 -1.7354408,5.6174519 -6e-7,8.035443 z"
         transform="matrix(-0.3,0,0,-0.3,0.69,0)" />
    </marker>
    <marker
       inkscape:stockid="Arrow2Send"
       orient="auto"
       refY="0"
       refX="0"
       id="marker5984"
       style="overflow:visible">
      <path
         inkscape:connector-curvature="0"
         id="path5986"
         style="fill-rule:evenodd;stroke-width:0.625;stroke-linejoin:round"
         d="M 8.7185878,4.0337352 -2.2072895,0.01601326 8.7185884,-4.0017078 c -1.7454984,2.3720609 -1.7354408,5.6174519 -6e-7,8.035443 z"
         transform="matrix(-0.3,0,0,-0.3,0.69,0)" />
    </marker>
    <marker
       inkscape:stockid="Arrow2Send"
       orient="auto"
       refY="0"
       refX="0"
       id="marker5988"
       style="overflow:visible">
      <path
         inkscape:connector-curvature="0"
         id="path5990"
         style="fill-rule:evenodd;stroke-width:0.625;stroke-linejoin:round"
         d="M 8.7185878,4.0337352 -2.2072895,0.01601326 8.7185884,-4.0017078 c -1.7454984,2.3720609 -1.7354408,5.6174519 -6e-7,8.035443 z"
         transform="matrix(-0.3,0,0,-0.3,0.69,0)" />
    </marker>
    <marker
       inkscape:stockid="Arrow2Send"
       orient="auto"
       refY="0"
       refX="0"
       id="Arrow2Send-61"
       style="overflow:visible">
      <path
         inkscape:connector-curvature="0"
         id="path4174-5"
         style="fill-rule:evenodd;stroke-width:0.625;stroke-linejoin:round"
         d="M 8.7185878,4.0337352 -2.2072895,0.01601326 8.7185884,-4.0017078 c -1.7454984,2.3720609 -1.7354408,5.6174519 -6e-7,8.035443 z"
         transform="matrix(-0.3,0,0,-0.3,0.69,0)" />
    </marker>
    <marker
       inkscape:stockid="Arrow2Send"
       orient="auto"
       refY="0"
       refX="0"
       id="marker6049"
       style="overflow:visible">
      <path
         inkscape:connector-curvature="0"
         id="path6051"
         style="fill-rule:evenodd;stroke-width:0.625;stroke-linejoin:round"
         d="M 8.7185878,4.0337352 -2.2072895,0.01601326 8.7185884,-4.0017078 c -1.7454984,2.3720609 -1.7354408,5.6174519 -6e-7,8.035443 z"
         transform="matrix(-0.3,0,0,-0.3,0.69,0)" />
    </marker>
    <marker
       inkscape:stockid="Arrow2Send"
       orient="auto"
       refY="0"
       refX="0"
       id="Arrow2Send-09"
       style="overflow:visible">
      <path
         inkscape:connector-curvature="0"
         id="path4174-1"
         style="fill-rule:evenodd;stroke-width:0.625;stroke-linejoin:round"
         d="M 8.7185878,4.0337352 -2.2072895,0.01601326 8.7185884,-4.0017078 c -1.7454984,2.3720609 -1.7354408,5.6174519 -6e-7,8.035443 z"
         transform="matrix(-0.3,0,0,-0.3,0.69,0)" />
    </marker>
    <marker
       inkscape:stockid="Arrow2Send"
       orient="auto"
       refY="0"
       refX="0"
       id="marker6119"
       style="overflow:visible">
      <path
         inkscape:connector-curvature="0"
         id="path6121"
         style="fill-rule:evenodd;stroke-width:0.625;stroke-linejoin:round"
         d="M 8.7185878,4.0337352 -2.2072895,0.01601326 8.7185884,-4.0017078 c -1.7454984,2.3720609 -1.7354408,5.6174519 -6e-7,8.035443 z"
         transform="matrix(-0.3,0,0,-0.3,0.69,0)" />
    </marker>
    <marker
       inkscape:stockid="Arrow2Send"
       orient="auto"
       refY="0"
       refX="0"
       id="Arrow2Send-15"
       style="overflow:visible">
      <path
         inkscape:connector-curvature="0"
         id="path4174-9"
         style="fill-rule:evenodd;stroke-width:0.625;stroke-linejoin:round"
         d="M 8.7185878,4.0337352 -2.2072895,0.01601326 8.7185884,-4.0017078 c -1.7454984,2.3720609 -1.7354408,5.6174519 -6e-7,8.035443 z"
         transform="matrix(-0.3,0,0,-0.3,0.69,0)" />
    </marker>
    <marker
       inkscape:stockid="Arrow2Send"
       orient="auto"
       refY="0"
       refX="0"
       id="marker6157"
       style="overflow:visible">
      <path
         inkscape:connector-curvature="0"
         id="path6159"
         style="fill-rule:evenodd;stroke-width:0.625;stroke-linejoin:round"
         d="M 8.7185878,4.0337352 -2.2072895,0.01601326 8.7185884,-4.0017078 c -1.7454984,2.3720609 -1.7354408,5.6174519 -6e-7,8.035443 z"
         transform="matrix(-0.3,0,0,-0.3,0.69,0)" />
    </marker>
    <marker
       inkscape:stockid="Arrow2Send"
       orient="auto"
       refY="0"
       refX="0"
       id="Arrow2Send-73"
       style="overflow:visible">
      <path
         inkscape:connector-curvature="0"
         id="path4174-65"
         style="fill-rule:evenodd;stroke-width:0.625;stroke-linejoin:round"
         d="M 8.7185878,4.0337352 -2.2072895,0.01601326 8.7185884,-4.0017078 c -1.7454984,2.3720609 -1.7354408,5.6174519 -6e-7,8.035443 z"
         transform="matrix(-0.3,0,0,-0.3,0.69,0)" />
    </marker>
    <marker
       inkscape:stockid="Arrow2Send"
       orient="auto"
       refY="0"
       refX="0"
       id="marker6195"
       style="overflow:visible">
      <path
         inkscape:connector-curvature="0"
         id="path6197"
         style="fill-rule:evenodd;stroke-width:0.625;stroke-linejoin:round"
         d="M 8.7185878,4.0337352 -2.2072895,0.01601326 8.7185884,-4.0017078 c -1.7454984,2.3720609 -1.7354408,5.6174519 -6e-7,8.035443 z"
         transform="matrix(-0.3,0,0,-0.3,0.69,0)" />
    </marker>
    <marker
       inkscape:stockid="Arrow2Send"
       orient="auto"
       refY="0"
       refX="0"
       id="Arrow2Send-48"
       style="overflow:visible">
      <path
         inkscape:connector-curvature="0"
         id="path4174-12"
         style="fill-rule:evenodd;stroke-width:0.625;stroke-linejoin:round"
         d="M 8.7185878,4.0337352 -2.2072895,0.01601326 8.7185884,-4.0017078 c -1.7454984,2.3720609 -1.7354408,5.6174519 -6e-7,8.035443 z"
         transform="matrix(-0.3,0,0,-0.3,0.69,0)" />
    </marker>
    <marker
       inkscape:stockid="Arrow2Send"
       orient="auto"
       refY="0"
       refX="0"
       id="marker6233"
       style="overflow:visible">
      <path
         inkscape:connector-curvature="0"
         id="path6235"
         style="fill-rule:evenodd;stroke-width:0.625;stroke-linejoin:round"
         d="M 8.7185878,4.0337352 -2.2072895,0.01601326 8.7185884,-4.0017078 c -1.7454984,2.3720609 -1.7354408,5.6174519 -6e-7,8.035443 z"
         transform="matrix(-0.3,0,0,-0.3,0.69,0)" />
    </marker>
    <marker
       inkscape:stockid="Arrow2Send"
       orient="auto"
       refY="0"
       refX="0"
       id="marker6237"
       style="overflow:visible">
      <path
         inkscape:connector-curvature="0"
         id="path6239"
         style="fill-rule:evenodd;stroke-width:0.625;stroke-linejoin:round"
         d="M 8.7185878,4.0337352 -2.2072895,0.01601326 8.7185884,-4.0017078 c -1.7454984,2.3720609 -1.7354408,5.6174519 -6e-7,8.035443 z"
         transform="matrix(-0.3,0,0,-0.3,0.69,0)" />
    </marker>
    <marker
       inkscape:stockid="Arrow2Send"
       orient="auto"
       refY="0"
       refX="0"
       id="marker6241"
       style="overflow:visible">
      <path
         inkscape:connector-curvature="0"
         id="path6243"
         style="fill-rule:evenodd;stroke-width:0.625;stroke-linejoin:round"
         d="M 8.7185878,4.0337352 -2.2072895,0.01601326 8.7185884,-4.0017078 c -1.7454984,2.3720609 -1.7354408,5.6174519 -6e-7,8.035443 z"
         transform="matrix(-0.3,0,0,-0.3,0.69,0)" />
    </marker>
    <marker
       inkscape:stockid="Arrow2Send"
       orient="auto"
       refY="0"
       refX="0"
       id="Arrow2Send-96"
       style="overflow:visible">
      <path
         inkscape:connector-curvature="0"
         id="path4174-38"
         style="fill-rule:evenodd;stroke-width:0.625;stroke-linejoin:round"
         d="M 8.7185878,4.0337352 -2.2072895,0.01601326 8.7185884,-4.0017078 c -1.7454984,2.3720609 -1.7354408,5.6174519 -6e-7,8.035443 z"
         transform="matrix(-0.3,0,0,-0.3,0.69,0)" />
    </marker>
    <marker
       inkscape:stockid="Arrow2Send"
       orient="auto"
       refY="0"
       refX="0"
       id="marker6302"
       style="overflow:visible">
      <path
         inkscape:connector-curvature="0"
         id="path6304"
         style="fill-rule:evenodd;stroke-width:0.625;stroke-linejoin:round"
         d="M 8.7185878,4.0337352 -2.2072895,0.01601326 8.7185884,-4.0017078 c -1.7454984,2.3720609 -1.7354408,5.6174519 -6e-7,8.035443 z"
         transform="matrix(-0.3,0,0,-0.3,0.69,0)" />
    </marker>
    <marker
       inkscape:stockid="Arrow2Send"
       orient="auto"
       refY="0"
       refX="0"
       id="marker6306"
       style="overflow:visible">
      <path
         inkscape:connector-curvature="0"
         id="path6308"
         style="fill-rule:evenodd;stroke-width:0.625;stroke-linejoin:round"
         d="M 8.7185878,4.0337352 -2.2072895,0.01601326 8.7185884,-4.0017078 c -1.7454984,2.3720609 -1.7354408,5.6174519 -6e-7,8.035443 z"
         transform="matrix(-0.3,0,0,-0.3,0.69,0)" />
    </marker>
    <marker
       inkscape:stockid="Arrow2Send"
       orient="auto"
       refY="0"
       refX="0"
       id="marker6310"
       style="overflow:visible">
      <path
         inkscape:connector-curvature="0"
         id="path6312"
         style="fill-rule:evenodd;stroke-width:0.625;stroke-linejoin:round"
         d="M 8.7185878,4.0337352 -2.2072895,0.01601326 8.7185884,-4.0017078 c -1.7454984,2.3720609 -1.7354408,5.6174519 -6e-7,8.035443 z"
         transform="matrix(-0.3,0,0,-0.3,0.69,0)" />
    </marker>
    <marker
       inkscape:stockid="Arrow2Send"
       orient="auto"
       refY="0"
       refX="0"
       id="Arrow2Send-8"
       style="overflow:visible">
      <path
         inkscape:connector-curvature="0"
         id="path4174-10"
         style="fill-rule:evenodd;stroke-width:0.625;stroke-linejoin:round"
         d="M 8.7185878,4.0337352 -2.2072895,0.01601326 8.7185884,-4.0017078 c -1.7454984,2.3720609 -1.7354408,5.6174519 -6e-7,8.035443 z"
         transform="matrix(-0.3,0,0,-0.3,0.69,0)" />
    </marker>
    <marker
       inkscape:stockid="Arrow2Send"
       orient="auto"
       refY="0"
       refX="0"
       id="marker6371"
       style="overflow:visible">
      <path
         inkscape:connector-curvature="0"
         id="path6373"
         style="fill-rule:evenodd;stroke-width:0.625;stroke-linejoin:round"
         d="M 8.7185878,4.0337352 -2.2072895,0.01601326 8.7185884,-4.0017078 c -1.7454984,2.3720609 -1.7354408,5.6174519 -6e-7,8.035443 z"
         transform="matrix(-0.3,0,0,-0.3,0.69,0)" />
    </marker>
  </defs>
  <sodipodi:namedview
     id="base"
     pagecolor="#ffffff"
     bordercolor="#666666"
     borderopacity="1.0"
     inkscape:pageopacity="0.0"
     inkscape:pageshadow="2"
     inkscape:zoom="1.4"
     inkscape:cx="248.42513"
     inkscape:cy="197.63462"
     inkscape:document-units="px"
     inkscape:current-layer="layer1"
     showgrid="false"
     inkscape:object-paths="true"
     inkscape:snap-intersection-paths="false"
     inkscape:object-nodes="false"
     inkscape:snap-smooth-nodes="false"
     inkscape:snap-midpoints="false"
     inkscape:snap-object-midpoints="true"
     inkscape:snap-nodes="true"
     inkscape:snap-global="true"
     fit-margin-top="0"
     fit-margin-left="0"
     fit-margin-right="0"
     fit-margin-bottom="0"
     inkscape:window-width="1598"
     inkscape:window-height="879"
     inkscape:window-x="0"
     inkscape:window-y="19"
     inkscape:window-maximized="0"
     showguides="true"
     inkscape:guide-bbox="true" />
  <metadata
     id="metadata7">
    <rdf:RDF>
      <cc:Work
         rdf:about="">
        <dc:format>image/svg+xml</dc:format>
        <dc:type
           rdf:resource="http://purl.org/dc/dcmitype/StillImage" />
        <dc:title></dc:title>
      </cc:Work>
    </rdf:RDF>
  </metadata>
  <g
     inkscape:label="Layer 1"
     inkscape:groupmode="layer"
     id="layer1"
     transform="translate(-2.46875,-450.07989)">
    <path
       sodipodi:type="arc"
       style="fill:#000000;fill-opacity:0.1372549;stroke:#000000;stroke-width:1;stroke-miterlimit:4;stroke-opacity:0.78431373;stroke-dasharray:none;stroke-dashoffset:0"
       id="path2985"
       sodipodi:cx="434.87067"
       sodipodi:cy="639.71484"
       sodipodi:rx="152.02795"
       sodipodi:ry="152.02795"
       d="m 586.89862,639.71484 c 0,83.96272 -68.06523,152.02796 -152.02795,152.02796 -83.96272,0 -152.02796,-68.06524 -152.02796,-152.02796 0,-83.96272 68.06524,-152.02795 152.02796,-152.02795 83.96272,0 152.02795,68.06523 152.02795,152.02795 z" />
    <path
       sodipodi:type="arc"
       style="fill:#050000;fill-opacity:1;stroke:#000000;stroke-width:1;stroke-miterlimit:4;stroke-opacity:0.78431373;stroke-dasharray:none;stroke-dashoffset:0"
       id="path3763-9"
       sodipodi:cx="151.27034"
       sodipodi:cy="603.60193"
       sodipodi:rx="5.8083773"
       sodipodi:ry="5.8083773"
       d="m 157.07872,603.60193 c 0,3.20788 -2.6005,5.80838 -5.80838,5.80838 -3.20788,0 -5.80838,-2.6005 -5.80838,-5.80838 0,-3.20788 2.6005,-5.80838 5.80838,-5.80838 3.20788,0 5.80838,2.6005 5.80838,5.80838 z"
       transform="matrix(0.80430411,0,0,0.69558112,240.93516,353.64678)" />
    <path
       sodipodi:type="arc"
       style="fill:#050000;fill-opacity:1;stroke:#000000;stroke-width:1;stroke-miterlimit:4;stroke-opacity:0.78431373;stroke-dasharray:none;stroke-dashoffset:0"
       id="path3763-9-26"
       sodipodi:cx="151.27034"
       sodipodi:cy="603.60193"
       sodipodi:rx="5.8083773"
       sodipodi:ry="5.8083773"
       d="m 157.07872,603.60193 c 0,3.20788 -2.6005,5.80838 -5.80838,5.80838 -3.20788,0 -5.80838,-2.6005 -5.80838,-5.80838 0,-3.20788 2.6005,-5.80838 5.80838,-5.80838 3.20788,0 5.80838,2.6005 5.80838,5.80838 z"
       transform="matrix(0.80430411,0,0,0.69558112,174.78728,282.82738)" />
    <path
       sodipodi:type="arc"
       style="fill:#050000;fill-opacity:1;stroke:#000000;stroke-width:1;stroke-miterlimit:4;stroke-opacity:0.78431373;stroke-dasharray:none;stroke-dashoffset:0"
       id="path3763-9-06-1"
       sodipodi:cx="151.27034"
       sodipodi:cy="603.60193"
       sodipodi:rx="5.8083773"
       sodipodi:ry="5.8083773"
       d="m 157.07872,603.60193 c 0,3.20788 -2.6005,5.80838 -5.80838,5.80838 -3.20788,0 -5.80838,-2.6005 -5.80838,-5.80838 0,-3.20788 2.6005,-5.80838 5.80838,-5.80838 3.20788,0 5.80838,2.6005 5.80838,5.80838 z"
       transform="matrix(0.80430411,0,0,0.69558112,284.77705,70.485834)" />
    <path
       sodipodi:type="arc"
       style="fill:#050000;fill-opacity:1;stroke:#000000;stroke-width:1;stroke-miterlimit:4;stroke-opacity:0.78431373;stroke-dasharray:none;stroke-dashoffset:0"
       id="path3763-9-06-8"
       sodipodi:cx="151.27034"
       sodipodi:cy="603.60193"
       sodipodi:rx="5.8083773"
       sodipodi:ry="5.8083773"
       d="m 157.07872,603.60193 c 0,3.20788 -2.6005,5.80838 -5.80838,5.80838 -3.20788,0 -5.80838,-2.6005 -5.80838,-5.80838 0,-3.20788 2.6005,-5.80838 5.80838,-5.80838 3.20788,0 5.80838,2.6005 5.80838,5.80838 z"
       transform="matrix(0.80430411,0,0,0.69558112,421.18681,112.84641)" />
    <path
       sodipodi:type="arc"
       style="fill:#050000;fill-opacity:0.31372549;stroke:#000000;stroke-width:1;stroke-miterlimit:4;stroke-opacity:0.31372549;stroke-dasharray:none;stroke-dashoffset:0"
       id="path3763-9-06-3-7"
       sodipodi:cx="151.27034"
       sodipodi:cy="603.60193"
       sodipodi:rx="5.8083773"
       sodipodi:ry="5.8083773"
       d="m 157.07872,603.60193 c 0,3.20788 -2.6005,5.80838 -5.80838,5.80838 -3.20788,0 -5.80838,-2.6005 -5.80838,-5.80838 0,-3.20788 2.6005,-5.80838 5.80838,-5.80838 3.20788,0 5.80838,2.6005 5.80838,5.80838 z"
       transform="matrix(0.80430411,0,0,0.69558112,296.5358,218.85061)" />
    <path
       sodipodi:type="arc"
       style="fill:#050000;fill-opacity:0.31372549;stroke:#000000;stroke-width:1;stroke-miterlimit:4;stroke-opacity:0.31372549;stroke-dasharray:none;stroke-dashoffset:0"
       id="path3763-9-06-3-5"
       sodipodi:cx="151.27034"
       sodipodi:cy="603.60193"
       sodipodi:rx="5.8083773"
       sodipodi:ry="5.8083773"
       d="m 157.07872,603.60193 c 0,3.20788 -2.6005,5.80838 -5.80838,5.80838 -3.20788,0 -5.80838,-2.6005 -5.80838,-5.80838 0,-3.20788 2.6005,-5.80838 5.80838,-5.80838 3.20788,0 5.80838,2.6005 5.80838,5.80838 z"
       transform="matrix(0.80430411,0,0,0.69558112,400.07643,289.05621)" />
    <path
       sodipodi:type="arc"
       style="fill:#050000;fill-opacity:0.31372549;stroke:#000000;stroke-width:1;stroke-miterlimit:4;stroke-opacity:0.31372549;stroke-dasharray:none;stroke-dashoffset:0"
       id="path3763-9-06-3-9"
       sodipodi:cx="151.27034"
       sodipodi:cy="603.60193"
       sodipodi:rx="5.8083773"
       sodipodi:ry="5.8083773"
       d="m 157.07872,603.60193 c 0,3.20788 -2.6005,5.80838 -5.80838,5.80838 -3.20788,0 -5.80838,-2.6005 -5.80838,-5.80838 0,-3.20788 2.6005,-5.80838 5.80838,-5.80838 3.20788,0 5.80838,2.6005 5.80838,5.80838 z"
       transform="matrix(0.80430411,0,0,0.69558112,317.24393,330.97754)" />
    <path
       sodipodi:type="arc"
       style="fill:#050000;fill-opacity:0.31372549;stroke:#000000;stroke-width:1;stroke-miterlimit:4;stroke-opacity:0.31372549;stroke-dasharray:none;stroke-dashoffset:0"
       id="path3763-9-06-3-2"
       sodipodi:cx="151.27034"
       sodipodi:cy="603.60193"
       sodipodi:rx="5.8083773"
       sodipodi:ry="5.8083773"
       d="m 157.07872,603.60193 c 0,3.20788 -2.6005,5.80838 -5.80838,5.80838 -3.20788,0 -5.80838,-2.6005 -5.80838,-5.80838 0,-3.20788 2.6005,-5.80838 5.80838,-5.80838 3.20788,0 5.80838,2.6005 5.80838,5.80838 z"
       transform="matrix(0.80430411,0,0,0.69558112,324.82007,108.23891)" />
    <path
       sodipodi:type="arc"
       style="fill:#050000;fill-opacity:0.31372549;stroke:#000000;stroke-width:1;stroke-miterlimit:4;stroke-opacity:0.31372549;stroke-dasharray:none;stroke-dashoffset:0"
       id="path3763-9-06-3-28"
       sodipodi:cx="151.27034"
       sodipodi:cy="603.60193"
       sodipodi:rx="5.8083773"
       sodipodi:ry="5.8083773"
       d="m 157.07872,603.60193 c 0,3.20788 -2.6005,5.80838 -5.80838,5.80838 -3.20788,0 -5.80838,-2.6005 -5.80838,-5.80838 0,-3.20788 2.6005,-5.80838 5.80838,-5.80838 3.20788,0 5.80838,2.6005 5.80838,5.80838 z"
       transform="matrix(0.80430411,0,0,0.69558112,415.22872,173.89882)" />
    <path
       sodipodi:type="arc"
       style="fill:#050000;fill-opacity:0.31372549;stroke:#000000;stroke-width:1;stroke-miterlimit:4;stroke-opacity:0.31372549;stroke-dasharray:none;stroke-dashoffset:0"
       id="path3763-9-06-3-3"
       sodipodi:cx="151.27034"
       sodipodi:cy="603.60193"
       sodipodi:rx="5.8083773"
       sodipodi:ry="5.8083773"
       d="m 157.07872,603.60193 c 0,3.20788 -2.6005,5.80838 -5.80838,5.80838 -3.20788,0 -5.80838,-2.6005 -5.80838,-5.80838 0,-3.20788 2.6005,-5.80838 5.80838,-5.80838 3.20788,0 5.80838,2.6005 5.80838,5.80838 z"
       transform="matrix(0.80430411,0,0,0.69558112,196.02562,243.59934)" />
    <path
       sodipodi:type="arc"
       style="fill:#050000;fill-opacity:1;stroke:#000000;stroke-width:1;stroke-miterlimit:4;stroke-opacity:0.78431373;stroke-dasharray:none;stroke-dashoffset:0"
       id="path3763-9-1"
       sodipodi:cx="151.27034"
       sodipodi:cy="603.60193"
       sodipodi:rx="5.8083773"
       sodipodi:ry="5.8083773"
       d="m 157.07872,603.60193 c 0,3.20788 -2.6005,5.80838 -5.80838,5.80838 -3.20788,0 -5.80838,-2.6005 -5.80838,-5.80838 0,-3.20788 2.6005,-5.80838 5.80838,-5.80838 3.20788,0 5.80838,2.6005 5.80838,5.80838 z"
       transform="matrix(0.80430411,0,0,0.69558112,185.02702,137.66881)" />
    <path
       style="fill:none;stroke:#000000;stroke-width:1px;stroke-linecap:butt;stroke-linejoin:miter;stroke-opacity:1"
       d="M 1.0101525,80.802066 115.15739,55.548253 255.56859,3.0203204 376.7869,26.253829 580.83771,23.223371 632.35549,95.954354 609.12198,293.94425 507.09658,377.78691 337.39095,357.58386 159.6041,370.71585 32.324881,284.85288 10.101525,175.75641 z"
       id="path3196"
       inkscape:connector-curvature="0"
       transform="translate(2,447.57989)" />
    <path
       style="fill:none;stroke:#ff0000;stroke-width:1px;stroke-linecap:butt;stroke-linejoin:miter;stroke-opacity:1;marker-end:url(#Arrow2Lend)"
       d="M 304.22563,107.44303 216.42857,280.09821"
       id="path17284"
       inkscape:connector-curvature="0"
       transform="translate(2.46875,450.07989)" />
    <path
       style="fill:none;stroke:#ff0000;stroke-width:1px;stroke-linecap:butt;stroke-linejoin:miter;stroke-opacity:1;marker-start:none;marker-end:url(#Arrow2Lend)"
       d="m 304.22563,107.44303 -170.6542,9.79804"
       id="path18090"
       inkscape:connector-curvature="0"
       transform="translate(2.46875,450.07989)" />
    <path
       style="fill:none;stroke:#ff0000;stroke-width:1px;stroke-linecap:butt;stroke-linejoin:miter;stroke-opacity:1;marker-end:url(#Arrow2Lend)"
       d="M 304.22563,107.44303 171.42857,233.66964"
       id="path18092"
       inkscape:connector-curvature="0"
       transform="translate(2.46875,450.07989)" />
    <path
       style="fill:none;stroke:#ff0000;stroke-width:1px;stroke-linecap:butt;stroke-linejoin:miter;stroke-opacity:1;marker-end:url(#Arrow2Lend)"
       d="M 304.22563,107.44303 146.42857,171.52678"
       id="path18898"
       inkscape:connector-curvature="0"
       transform="translate(2.46875,450.07989)" />
    <flowRoot
       xml:space="preserve"
       id="flowRoot19168"
       style="font-size:12px;font-style:normal;font-weight:normal;line-height:125%;letter-spacing:0px;word-spacing:0px;fill:#000000;fill-opacity:1;stroke:none;font-family:Sans"
       transform="translate(52.325893,430.07989)"><flowRegion
         id="flowRegion19170"><rect
           id="rect19172"
           width="65.714287"
           height="40"
           x="54.285713"
           y="120.09821" /></flowRegion><flowPara
         id="flowPara19174">位<flowSpan
   style="font-size:65.00091553%;baseline-shift:sub"
   id="flowSpan19176">1</flowSpan></flowPara></flowRoot>    <flowRoot
       transform="translate(67.336592,497.48195)"
       xml:space="preserve"
       id="flowRoot19168-2"
       style="font-size:12px;font-style:normal;font-weight:normal;line-height:125%;letter-spacing:0px;word-spacing:0px;fill:#000000;fill-opacity:1;stroke:none;font-family:Sans"><flowRegion
         id="flowRegion19170-8"><rect
           id="rect19172-9"
           width="65.714287"
           height="40"
           x="54.285713"
           y="120.09821" /></flowRegion><flowPara
         id="flowPara19174-7">位<flowSpan
   style="font-size:65.00091553%;baseline-shift:sub"
   id="flowSpan19268">2</flowSpan></flowPara></flowRoot>    <flowRoot
       transform="translate(93.479453,560.3391)"
       xml:space="preserve"
       id="flowRoot19168-9"
       style="font-size:12px;font-style:normal;font-weight:normal;line-height:125%;letter-spacing:0px;word-spacing:0px;fill:#000000;fill-opacity:1;stroke:none;font-family:Sans"><flowRegion
         id="flowRegion19170-4"><rect
           id="rect19172-7"
           width="65.714287"
           height="40"
           x="54.285713"
           y="120.09821" /></flowRegion><flowPara
         id="flowPara19174-8">位<flowSpan
   style="font-size:65.00091553%;baseline-shift:sub"
   id="flowSpan19270">l-1</flowSpan></flowPara></flowRoot>    <flowRoot
       transform="translate(156.05088,615.91053)"
       xml:space="preserve"
       id="flowRoot19168-5"
       style="font-size:12px;font-style:normal;font-weight:normal;line-height:125%;letter-spacing:0px;word-spacing:0px;fill:#000000;fill-opacity:1;stroke:none;font-family:Sans"><flowRegion
         id="flowRegion19170-0"><rect
           id="rect19172-3"
           width="65.714287"
           height="40"
           x="54.285713"
           y="120.09821" /></flowRegion><flowPara
         id="flowPara19174-6">位<flowSpan
   style="font-size:65.00091553%;baseline-shift:sub"
   id="flowSpan19272">l</flowSpan></flowPara></flowRoot>    <path
       style="fill:none;stroke:#000000;stroke-width:1px;stroke-linecap:butt;stroke-linejoin:miter;stroke-opacity:1"
       d="m 110.13839,116.05474 11.0107,53.40206"
       id="path19276"
       inkscape:connector-curvature="0"
       transform="translate(2.46875,450.07989)" />
    <path
       style="fill:none;stroke:#000000;stroke-width:1;stroke-linecap:butt;stroke-linejoin:miter;stroke-miterlimit:4;stroke-opacity:1;stroke-dasharray:1, 6;stroke-dashoffset:0"
       d="m 127.61784,633.53669 20.14286,48.85715"
       id="path19282"
       inkscape:connector-curvature="0" />
    <path
       style="fill:none;stroke:#000000;stroke-width:1px;stroke-linecap:butt;stroke-linejoin:miter;stroke-opacity:1"
       d="m 153.7607,696.39384 54.57143,47.57143"
       id="path19284"
       inkscape:connector-curvature="0" />
    <path
       style="fill:none;stroke:#0000ff;stroke-width:1px;stroke-linecap:butt;stroke-linejoin:miter;stroke-opacity:1;marker-start:none;marker-end:url(#Arrow2Lend)"
       d="M 415.73441,188.62483 444.01868,78.013126"
       id="path19286"
       inkscape:connector-curvature="0"
       transform="translate(2.46875,450.07989)" />
    <path
       style="fill:none;stroke:#0000ff;stroke-width:1px;stroke-linecap:butt;stroke-linejoin:miter;stroke-opacity:1;marker-end:url(#Arrow2Lend)"
       d="m 415.73441,188.62483 103.54063,70.2056"
       id="path20100"
       inkscape:connector-curvature="0"
       transform="translate(2.46875,450.07989)" />
    <path
       style="fill:none;stroke:#0000ff;stroke-width:1px;stroke-linecap:butt;stroke-linejoin:miter;stroke-opacity:1;marker-end:url(#Arrow2Lend)"
       d="M 415.73441,188.62483 315.22423,213.37356"
       id="path20372"
       inkscape:connector-curvature="0"
       transform="translate(2.46875,450.07989)" />
    <path
       style="fill:none;stroke:#0000ff;stroke-width:1px;stroke-linecap:butt;stroke-linejoin:miter;stroke-opacity:1;marker-end:url(#Arrow2Lend)"
       d="m 415.73441,188.62483 20.70813,112.12693"
       id="path21184"
       inkscape:connector-curvature="0"
       transform="translate(2.46875,450.07989)" />
    <path
       style="fill:none;stroke:#0000ff;stroke-width:1px;stroke-linecap:butt;stroke-linejoin:miter;stroke-opacity:1;marker-end:url(#Arrow2Lend)"
       d="M 415.73441,188.62483 534.42733,143.67304"
       id="path21456"
       inkscape:connector-curvature="0"
       transform="translate(2.46875,450.07989)" />
    <path
       style="fill:none;stroke:#0000ff;stroke-width:1px;stroke-linecap:butt;stroke-linejoin:miter;stroke-opacity:1;marker-end:url(#Arrow2Lend)"
       d="M 415.73441,188.62483 304.22563,107.44303"
       id="path21766"
       inkscape:connector-curvature="0"
       transform="translate(2.46875,450.07989)" />
    <path
       style="fill:none;stroke:#0000ff;stroke-width:1px;stroke-linecap:butt;stroke-linejoin:miter;stroke-opacity:1;marker-end:url(#Arrow2Lend)"
       d="M 415.73441,188.62483 293.98589,252.6016"
       id="path22042"
       inkscape:connector-curvature="0"
       transform="translate(2.46875,450.07989)" />
    <path
       style="fill:none;stroke:#0000ff;stroke-width:1px;stroke-linecap:butt;stroke-linejoin:miter;stroke-opacity:1;marker-end:url(#Arrow2Lend)"
       d="M 415.73441,188.62483 403.97566,40.26005"
       id="path22044"
       inkscape:connector-curvature="0"
       transform="translate(2.46875,450.07989)" />
    <path
       style="fill:none;stroke:#0000ff;stroke-width:1px;stroke-linecap:butt;stroke-linejoin:miter;stroke-opacity:1;marker-end:url(#Arrow2Lend)"
       d="M 415.73441,188.62483 540.38542,82.620626"
       id="path23396"
       inkscape:connector-curvature="0"
       transform="translate(2.46875,450.07989)" />
    <path
       style="fill:none;stroke:#0000ff;stroke-width:1px;stroke-linecap:butt;stroke-linejoin:miter;stroke-opacity:1;marker-end:url(#Arrow2Lend)"
       d="M 415.73441,188.62483 360.13377,323.421"
       id="path23668"
       inkscape:connector-curvature="0"
       transform="translate(2.46875,450.07989)" />
  </g>
</svg>
