<?xml version="1.0" encoding="UTF-8" standalone="no"?>
<!-- Created with Inkscape (http://www.inkscape.org/) -->

<svg
   xmlns:dc="http://purl.org/dc/elements/1.1/"
   xmlns:cc="http://creativecommons.org/ns#"
   xmlns:rdf="http://www.w3.org/1999/02/22-rdf-syntax-ns#"
   xmlns:svg="http://www.w3.org/2000/svg"
   xmlns="http://www.w3.org/2000/svg"
   xmlns:sodipodi="http://sodipodi.sourceforge.net/DTD/sodipodi-0.dtd"
   xmlns:inkscape="http://www.inkscape.org/namespaces/inkscape"
   width="352.05688"
   height="349.45386"
   id="svg2"
   version="1.1"
   inkscape:version="0.48.4 r9939"
   sodipodi:docname="awvd1.pdf">
  <defs
     id="defs4" />
  <sodipodi:namedview
     id="base"
     pagecolor="#ffffff"
     bordercolor="#666666"
     borderopacity="1.0"
     inkscape:pageopacity="0.0"
     inkscape:pageshadow="2"
     inkscape:zoom="0.98994949"
     inkscape:cx="-61.88372"
     inkscape:cy="245.5898"
     inkscape:document-units="px"
     inkscape:current-layer="layer1"
     showgrid="false"
     inkscape:snap-object-midpoints="true"
     inkscape:object-paths="true"
     inkscape:window-width="1598"
     inkscape:window-height="862"
     inkscape:window-x="0"
     inkscape:window-y="37"
     inkscape:window-maximized="0"
     fit-margin-top="0"
     fit-margin-left="0"
     fit-margin-right="0"
     fit-margin-bottom="0" />
  <metadata
     id="metadata7">
    <rdf:RDF>
      <cc:Work
         rdf:about="">
        <dc:format>image/svg+xml</dc:format>
        <dc:type
           rdf:resource="http://purl.org/dc/dcmitype/StillImage" />
        <dc:title></dc:title>
      </cc:Work>
    </rdf:RDF>
  </metadata>
  <g
     inkscape:label="Layer 1"
     inkscape:groupmode="layer"
     id="layer1"
     transform="translate(-146.98098,-578.1494)">
    <path
       sodipodi:type="arc"
       style="fill:#000000;fill-opacity:0;stroke:#000000;stroke-width:1;stroke-miterlimit:4;stroke-opacity:1;stroke-dasharray:none;stroke-dashoffset:0"
       id="path2985"
       sodipodi:cx="323.75388"
       sodipodi:cy="755.88239"
       sodipodi:rx="171.22086"
       sodipodi:ry="171.22086"
       d="m 494.97473,755.88239 c 0,94.56266 -76.65819,171.22085 -171.22085,171.22085 -94.56267,0 -171.22086,-76.65819 -171.22086,-171.22085 0,-94.56267 76.65819,-171.22086 171.22086,-171.22086 94.56266,0 171.22085,76.65819 171.22085,171.22086 z" />
    <path
       sodipodi:type="arc"
       style="fill:#000000;fill-opacity:1;stroke:#000000;stroke-width:1;stroke-miterlimit:4;stroke-opacity:1;stroke-dasharray:none;stroke-dashoffset:0"
       id="path2987"
       sodipodi:cx="108.08632"
       sodipodi:cy="475.56509"
       sodipodi:rx="6.0609155"
       sodipodi:ry="6.0609155"
       d="m 114.14723,475.56509 c 0,3.34736 -2.71356,6.06092 -6.06091,6.06092 -3.34735,0 -6.06092,-2.71356 -6.06092,-6.06092 0,-3.34735 2.71357,-6.06091 6.06092,-6.06091 3.34735,0 6.06091,2.71356 6.06091,6.06091 z"
       transform="translate(99.676505,154.36903)" />
    <path
       transform="translate(333.24602,155.85029)"
       sodipodi:type="arc"
       style="fill:#000000;fill-opacity:1;stroke:#000000;stroke-width:1;stroke-miterlimit:4;stroke-opacity:1;stroke-dasharray:none;stroke-dashoffset:0"
       id="path2987-3"
       sodipodi:cx="108.08632"
       sodipodi:cy="475.56509"
       sodipodi:rx="6.0609155"
       sodipodi:ry="6.0609155"
       d="m 114.14723,475.56509 c 0,3.34736 -2.71356,6.06092 -6.06091,6.06092 -3.34735,0 -6.06092,-2.71356 -6.06092,-6.06092 0,-3.34735 2.71357,-6.06091 6.06092,-6.06091 3.34735,0 6.06091,2.71356 6.06091,6.06091 z" />
    <path
       transform="translate(85.701828,391.79168)"
       sodipodi:type="arc"
       style="fill:#000000;fill-opacity:1;stroke:#000000;stroke-width:1;stroke-miterlimit:4;stroke-opacity:1;stroke-dasharray:none;stroke-dashoffset:0"
       id="path2987-6"
       sodipodi:cx="108.08632"
       sodipodi:cy="475.56509"
       sodipodi:rx="6.0609155"
       sodipodi:ry="6.0609155"
       d="m 114.14723,475.56509 c 0,3.34736 -2.71356,6.06092 -6.06091,6.06092 -3.34735,0 -6.06092,-2.71356 -6.06092,-6.06092 0,-3.34735 2.71357,-6.06091 6.06092,-6.06091 3.34735,0 6.06091,2.71356 6.06091,6.06091 z" />
    <path
       transform="translate(361.46137,370.14448)"
       sodipodi:type="arc"
       style="fill:#000000;fill-opacity:1;stroke:#000000;stroke-width:1;stroke-miterlimit:4;stroke-opacity:1;stroke-dasharray:none;stroke-dashoffset:0"
       id="path2987-7"
       sodipodi:cx="108.08632"
       sodipodi:cy="475.56509"
       sodipodi:rx="6.0609155"
       sodipodi:ry="6.0609155"
       d="m 114.14723,475.56509 c 0,3.34736 -2.71356,6.06092 -6.06091,6.06092 -3.34735,0 -6.06092,-2.71356 -6.06092,-6.06092 0,-3.34735 2.71357,-6.06091 6.06092,-6.06091 3.34735,0 6.06091,2.71356 6.06091,6.06091 z" />
    <path
       transform="translate(309.10668,223.2437)"
       sodipodi:type="arc"
       style="fill:#787878;fill-opacity:1;stroke:#787878;stroke-width:1;stroke-miterlimit:4;stroke-opacity:1;stroke-dasharray:none;stroke-dashoffset:0"
       id="path2987-5"
       sodipodi:cx="108.08632"
       sodipodi:cy="475.56509"
       sodipodi:rx="6.0609155"
       sodipodi:ry="6.0609155"
       d="m 114.14723,475.56509 c 0,3.34736 -2.71356,6.06092 -6.06091,6.06092 -3.34735,0 -6.06092,-2.71356 -6.06092,-6.06092 0,-3.34735 2.71357,-6.06091 6.06092,-6.06091 3.34735,0 6.06091,2.71356 6.06091,6.06091 z" />
    <path
       transform="translate(190.91883,179.80714)"
       sodipodi:type="arc"
       style="fill:#787878;fill-opacity:1;stroke:#787878;stroke-width:1;stroke-miterlimit:4;stroke-opacity:1;stroke-dasharray:none;stroke-dashoffset:0"
       id="path2987-5-3"
       sodipodi:cx="108.08632"
       sodipodi:cy="475.56509"
       sodipodi:rx="6.0609155"
       sodipodi:ry="6.0609155"
       d="m 114.14723,475.56509 c 0,3.34736 -2.71356,6.06092 -6.06091,6.06092 -3.34735,0 -6.06092,-2.71356 -6.06092,-6.06092 0,-3.34735 2.71357,-6.06091 6.06092,-6.06091 3.34735,0 6.06091,2.71356 6.06091,6.06091 z" />
    <path
       transform="translate(190.91883,312.13712)"
       sodipodi:type="arc"
       style="fill:#787878;fill-opacity:1;stroke:#787878;stroke-width:1;stroke-miterlimit:4;stroke-opacity:1;stroke-dasharray:none;stroke-dashoffset:0"
       id="path2987-5-5"
       sodipodi:cx="108.08632"
       sodipodi:cy="475.56509"
       sodipodi:rx="6.0609155"
       sodipodi:ry="6.0609155"
       d="m 114.14723,475.56509 c 0,3.34736 -2.71356,6.06092 -6.06091,6.06092 -3.34735,0 -6.06092,-2.71356 -6.06092,-6.06092 0,-3.34735 2.71357,-6.06091 6.06092,-6.06091 3.34735,0 6.06091,2.71356 6.06091,6.06091 z" />
    <path
       transform="translate(265.67013,302.0356)"
       sodipodi:type="arc"
       style="fill:#787878;fill-opacity:1;stroke:#787878;stroke-width:1;stroke-miterlimit:4;stroke-opacity:1;stroke-dasharray:none;stroke-dashoffset:0"
       id="path2987-5-6"
       sodipodi:cx="108.08632"
       sodipodi:cy="475.56509"
       sodipodi:rx="6.0609155"
       sodipodi:ry="6.0609155"
       d="m 114.14723,475.56509 c 0,3.34736 -2.71356,6.06092 -6.06091,6.06092 -3.34735,0 -6.06092,-2.71356 -6.06092,-6.06092 0,-3.34735 2.71357,-6.06091 6.06092,-6.06091 3.34735,0 6.06091,2.71356 6.06091,6.06091 z" />
    <path
       transform="translate(152.53304,374.76657)"
       sodipodi:type="arc"
       style="fill:#787878;fill-opacity:1;stroke:#787878;stroke-width:1;stroke-miterlimit:4;stroke-opacity:1;stroke-dasharray:none;stroke-dashoffset:0"
       id="path2987-5-2"
       sodipodi:cx="108.08632"
       sodipodi:cy="475.56509"
       sodipodi:rx="6.0609155"
       sodipodi:ry="6.0609155"
       d="m 114.14723,475.56509 c 0,3.34736 -2.71356,6.06092 -6.06091,6.06092 -3.34735,0 -6.06092,-2.71356 -6.06092,-6.06092 0,-3.34735 2.71357,-6.06091 6.06092,-6.06091 3.34735,0 6.06091,2.71356 6.06091,6.06091 z" />
    <path
       transform="translate(228.29448,247.48736)"
       sodipodi:type="arc"
       style="fill:#787878;fill-opacity:1;stroke:#787878;stroke-width:1;stroke-miterlimit:4;stroke-opacity:1;stroke-dasharray:none;stroke-dashoffset:0"
       id="path2987-5-9"
       sodipodi:cx="108.08632"
       sodipodi:cy="475.56509"
       sodipodi:rx="6.0609155"
       sodipodi:ry="6.0609155"
       d="m 114.14723,475.56509 c 0,3.34736 -2.71356,6.06092 -6.06091,6.06092 -3.34735,0 -6.06092,-2.71356 -6.06092,-6.06092 0,-3.34735 2.71357,-6.06091 6.06092,-6.06091 3.34735,0 6.06091,2.71356 6.06091,6.06091 z" />
    <path
       transform="translate(131.31983,227.28431)"
       sodipodi:type="arc"
       style="fill:#787878;fill-opacity:1;stroke:#787878;stroke-width:1;stroke-miterlimit:4;stroke-opacity:1;stroke-dasharray:none;stroke-dashoffset:0"
       id="path2987-5-1"
       sodipodi:cx="108.08632"
       sodipodi:cy="475.56509"
       sodipodi:rx="6.0609155"
       sodipodi:ry="6.0609155"
       d="m 114.14723,475.56509 c 0,3.34736 -2.71356,6.06092 -6.06091,6.06092 -3.34735,0 -6.06092,-2.71356 -6.06092,-6.06092 0,-3.34735 2.71357,-6.06091 6.06092,-6.06091 3.34735,0 6.06091,2.71356 6.06091,6.06091 z" />
    <path
       transform="translate(108.08633,317.18788)"
       sodipodi:type="arc"
       style="fill:#787878;fill-opacity:1;stroke:#787878;stroke-width:1;stroke-miterlimit:4;stroke-opacity:1;stroke-dasharray:none;stroke-dashoffset:0"
       id="path2987-5-27"
       sodipodi:cx="108.08632"
       sodipodi:cy="475.56509"
       sodipodi:rx="6.0609155"
       sodipodi:ry="6.0609155"
       d="m 114.14723,475.56509 c 0,3.34736 -2.71356,6.06092 -6.06091,6.06092 -3.34735,0 -6.06092,-2.71356 -6.06092,-6.06092 0,-3.34735 2.71357,-6.06091 6.06092,-6.06091 3.34735,0 6.06091,2.71356 6.06091,6.06091 z" />
    <path
       transform="translate(258.59905,180.81729)"
       sodipodi:type="arc"
       style="fill:#787878;fill-opacity:1;stroke:#787878;stroke-width:1;stroke-miterlimit:4;stroke-opacity:1;stroke-dasharray:none;stroke-dashoffset:0"
       id="path2987-5-0"
       sodipodi:cx="108.08632"
       sodipodi:cy="475.56509"
       sodipodi:rx="6.0609155"
       sodipodi:ry="6.0609155"
       d="m 114.14723,475.56509 c 0,3.34736 -2.71356,6.06092 -6.06091,6.06092 -3.34735,0 -6.06092,-2.71356 -6.06092,-6.06092 0,-3.34735 2.71357,-6.06091 6.06092,-6.06091 3.34735,0 6.06091,2.71356 6.06091,6.06091 z" />
    <path
       transform="translate(351.53308,283.85286)"
       sodipodi:type="arc"
       style="fill:#787878;fill-opacity:1;stroke:#787878;stroke-width:1;stroke-miterlimit:4;stroke-opacity:1;stroke-dasharray:none;stroke-dashoffset:0"
       id="path2987-5-93"
       sodipodi:cx="108.08632"
       sodipodi:cy="475.56509"
       sodipodi:rx="6.0609155"
       sodipodi:ry="6.0609155"
       d="m 114.14723,475.56509 c 0,3.34736 -2.71356,6.06092 -6.06091,6.06092 -3.34735,0 -6.06092,-2.71356 -6.06092,-6.06092 0,-3.34735 2.71357,-6.06091 6.06092,-6.06091 3.34735,0 6.06091,2.71356 6.06091,6.06091 z" />
    <path
       transform="translate(275.77165,364.66505)"
       sodipodi:type="arc"
       style="fill:#787878;fill-opacity:1;stroke:#787878;stroke-width:1;stroke-miterlimit:4;stroke-opacity:1;stroke-dasharray:none;stroke-dashoffset:0"
       id="path2987-5-60"
       sodipodi:cx="108.08632"
       sodipodi:cy="475.56509"
       sodipodi:rx="6.0609155"
       sodipodi:ry="6.0609155"
       d="m 114.14723,475.56509 c 0,3.34736 -2.71356,6.06092 -6.06091,6.06092 -3.34735,0 -6.06092,-2.71356 -6.06092,-6.06092 0,-3.34735 2.71357,-6.06091 6.06092,-6.06091 3.34735,0 6.06091,2.71356 6.06091,6.06091 z" />
    <path
       transform="translate(209.10158,401.03055)"
       sodipodi:type="arc"
       style="fill:#787878;fill-opacity:1;stroke:#787878;stroke-width:1;stroke-miterlimit:4;stroke-opacity:1;stroke-dasharray:none;stroke-dashoffset:0"
       id="path2987-5-62"
       sodipodi:cx="108.08632"
       sodipodi:cy="475.56509"
       sodipodi:rx="6.0609155"
       sodipodi:ry="6.0609155"
       d="m 114.14723,475.56509 c 0,3.34736 -2.71356,6.06092 -6.06091,6.06092 -3.34735,0 -6.06092,-2.71356 -6.06092,-6.06092 0,-3.34735 2.71357,-6.06091 6.06092,-6.06091 3.34735,0 6.06091,2.71356 6.06091,6.06091 z" />
    <path
       style="fill:none;stroke:#ff0000;stroke-width:1px;stroke-linecap:butt;stroke-linejoin:miter;stroke-opacity:1"
       d="m 328.37831,584.72277 c 0,0 30.22584,40.34489 0.93142,107.01495 -29.29442,66.67007 -175.7917,82.61847 -175.7917,82.61847"
       id="path3896"
       inkscape:connector-curvature="0" />
    <path
       style="fill:none;stroke:#ff0000;stroke-width:1px;stroke-linecap:butt;stroke-linejoin:miter;stroke-opacity:1"
       d="m 287.08405,734.2075 c 0,0 69.9576,45.79335 84.88099,186.01463"
       id="path3898"
       inkscape:connector-curvature="0" />
    <path
       style="fill:none;stroke:#ff0000;stroke-width:1px;stroke-linecap:butt;stroke-linejoin:miter;stroke-opacity:1"
       d="m 331.42203,686.72405 c 0,0 73.3824,74.79834 161.39904,41.92631"
       id="path3900"
       inkscape:connector-curvature="0" />
    <path
       transform="translate(223.33571,211.15896)"
       sodipodi:type="arc"
       style="fill:#ff0000;fill-opacity:1;stroke:#ff0000;stroke-width:1;stroke-miterlimit:4;stroke-opacity:1;stroke-dasharray:none;stroke-dashoffset:0"
       id="path2987-5-1-6"
       sodipodi:cx="108.08632"
       sodipodi:cy="475.56509"
       sodipodi:rx="6.0609155"
       sodipodi:ry="6.0609155"
       d="m 114.14723,475.56509 c 0,3.34736 -2.71356,6.06092 -6.06091,6.06092 -3.34735,0 -6.06092,-2.71356 -6.06092,-6.06092 0,-3.34735 2.71357,-6.06091 6.06092,-6.06091 3.34735,0 6.06091,2.71356 6.06091,6.06091 z" />
    <path
       transform="translate(219.79562,109.14522)"
       sodipodi:type="arc"
       style="fill:#ff0000;fill-opacity:1;stroke:#ff0000;stroke-width:1;stroke-miterlimit:4;stroke-opacity:1;stroke-dasharray:none;stroke-dashoffset:0"
       id="path2987-5-1-6-1"
       sodipodi:cx="108.08632"
       sodipodi:cy="475.56509"
       sodipodi:rx="6.0609155"
       sodipodi:ry="6.0609155"
       d="m 114.14723,475.56509 c 0,3.34736 -2.71356,6.06092 -6.06091,6.06092 -3.34735,0 -6.06092,-2.71356 -6.06092,-6.06092 0,-3.34735 2.71357,-6.06091 6.06092,-6.06091 3.34735,0 6.06091,2.71356 6.06091,6.06091 z" />
    <path
       transform="translate(45.455578,299.01219)"
       sodipodi:type="arc"
       style="fill:#ff0000;fill-opacity:1;stroke:#ff0000;stroke-width:1;stroke-miterlimit:4;stroke-opacity:1;stroke-dasharray:none;stroke-dashoffset:0"
       id="path2987-5-1-6-8"
       sodipodi:cx="108.08632"
       sodipodi:cy="475.56509"
       sodipodi:rx="6.0609155"
       sodipodi:ry="6.0609155"
       d="m 114.14723,475.56509 c 0,3.34736 -2.71356,6.06092 -6.06091,6.06092 -3.34735,0 -6.06092,-2.71356 -6.06092,-6.06092 0,-3.34735 2.71357,-6.06091 6.06092,-6.06091 3.34735,0 6.06091,2.71356 6.06091,6.06091 z" />
    <path
       transform="translate(178.99773,258.64241)"
       sodipodi:type="arc"
       style="fill:#ff0000;fill-opacity:1;stroke:#ff0000;stroke-width:1;stroke-miterlimit:4;stroke-opacity:1;stroke-dasharray:none;stroke-dashoffset:0"
       id="path2987-5-1-6-7"
       sodipodi:cx="108.08632"
       sodipodi:cy="475.56509"
       sodipodi:rx="6.0609155"
       sodipodi:ry="6.0609155"
       d="m 114.14723,475.56509 c 0,3.34736 -2.71356,6.06092 -6.06091,6.06092 -3.34735,0 -6.06092,-2.71356 -6.06092,-6.06092 0,-3.34735 2.71357,-6.06091 6.06092,-6.06091 3.34735,0 6.06091,2.71356 6.06091,6.06091 z" />
    <path
       transform="translate(265.61627,444.13805)"
       sodipodi:type="arc"
       style="fill:#ff0000;fill-opacity:1;stroke:#ff0000;stroke-width:1;stroke-miterlimit:4;stroke-opacity:1;stroke-dasharray:none;stroke-dashoffset:0"
       id="path2987-5-1-6-9"
       sodipodi:cx="108.08632"
       sodipodi:cy="475.56509"
       sodipodi:rx="6.0609155"
       sodipodi:ry="6.0609155"
       d="m 114.14723,475.56509 c 0,3.34736 -2.71356,6.06092 -6.06091,6.06092 -3.34735,0 -6.06092,-2.71356 -6.06092,-6.06092 0,-3.34735 2.71357,-6.06091 6.06092,-6.06091 3.34735,0 6.06091,2.71356 6.06091,6.06091 z" />
    <path
       transform="translate(384.39064,251.0139)"
       sodipodi:type="arc"
       style="fill:#ff0000;fill-opacity:1;stroke:#ff0000;stroke-width:1;stroke-miterlimit:4;stroke-opacity:1;stroke-dasharray:none;stroke-dashoffset:0"
       id="path2987-5-1-6-2"
       sodipodi:cx="108.08632"
       sodipodi:cy="475.56509"
       sodipodi:rx="6.0609155"
       sodipodi:ry="6.0609155"
       d="m 114.14723,475.56509 c 0,3.34736 -2.71356,6.06092 -6.06091,6.06092 -3.34735,0 -6.06092,-2.71356 -6.06092,-6.06092 0,-3.34735 2.71357,-6.06091 6.06092,-6.06091 3.34735,0 6.06091,2.71356 6.06091,6.06091 z" />
  </g>
</svg>
