<?xml version="1.0" encoding="UTF-8" standalone="no"?>
<!-- Created with Inkscape (http://www.inkscape.org/) -->

<svg
   xmlns:dc="http://purl.org/dc/elements/1.1/"
   xmlns:cc="http://creativecommons.org/ns#"
   xmlns:rdf="http://www.w3.org/1999/02/22-rdf-syntax-ns#"
   xmlns:svg="http://www.w3.org/2000/svg"
   xmlns="http://www.w3.org/2000/svg"
   xmlns:sodipodi="http://sodipodi.sourceforge.net/DTD/sodipodi-0.dtd"
   xmlns:inkscape="http://www.inkscape.org/namespaces/inkscape"
   width="773.30438"
   height="773.30438"
   id="svg2"
   version="1.1"
   inkscape:version="0.48.4 r9939"
   sodipodi:docname="vd1.pdf">
  <defs
     id="defs4">
    <marker
       inkscape:stockid="Arrow2Lend"
       orient="auto"
       refY="0"
       refX="0"
       id="Arrow2Lend"
       style="overflow:visible">
      <path
         id="path4289"
         style="fill-rule:evenodd;stroke-width:0.625;stroke-linejoin:round"
         d="M 8.7185878,4.0337352 -2.2072895,0.01601326 8.7185884,-4.0017078 c -1.7454984,2.3720609 -1.7354408,5.6174519 -6e-7,8.035443 z"
         transform="matrix(-1.1,0,0,-1.1,-1.1,0)"
         inkscape:connector-curvature="0" />
    </marker>
    <marker
       inkscape:stockid="Arrow1Lend"
       orient="auto"
       refY="0"
       refX="0"
       id="Arrow1Lend"
       style="overflow:visible">
      <path
         id="path4271"
         d="M 0,0 5,-5 -12.5,0 5,5 0,0 z"
         style="fill-rule:evenodd;stroke:#000000;stroke-width:1pt"
         transform="matrix(-0.8,0,0,-0.8,-10,0)"
         inkscape:connector-curvature="0" />
    </marker>
  </defs>
  <sodipodi:namedview
     id="base"
     pagecolor="#ffffff"
     bordercolor="#666666"
     borderopacity="1.0"
     inkscape:pageopacity="0.0"
     inkscape:pageshadow="2"
     inkscape:zoom="0.70710678"
     inkscape:cx="497.23901"
     inkscape:cy="372.6626"
     inkscape:document-units="px"
     inkscape:current-layer="layer1"
     showgrid="false"
     inkscape:snap-object-midpoints="true"
     inkscape:object-paths="false"
     fit-margin-top="0"
     fit-margin-left="0"
     fit-margin-right="0"
     fit-margin-bottom="0"
     inkscape:window-width="1598"
     inkscape:window-height="862"
     inkscape:window-x="0"
     inkscape:window-y="37"
     inkscape:window-maximized="0" />
  <metadata
     id="metadata7">
    <rdf:RDF>
      <cc:Work
         rdf:about="">
        <dc:format>image/svg+xml</dc:format>
        <dc:type
           rdf:resource="http://purl.org/dc/dcmitype/StillImage" />
        <dc:title></dc:title>
      </cc:Work>
    </rdf:RDF>
  </metadata>
  <g
     inkscape:label="Layer 1"
     inkscape:groupmode="layer"
     id="layer1"
     transform="translate(305.66154,-295.27209)">
    <path
       sodipodi:type="arc"
       style="fill:#000000;fill-opacity:0;stroke:#000000;stroke-width:1;stroke-miterlimit:4;stroke-opacity:1;stroke-dasharray:none;stroke-dashoffset:0"
       id="path2985"
       sodipodi:cx="37.857143"
       sodipodi:cy="638.79077"
       sodipodi:rx="429.28571"
       sodipodi:ry="429.28571"
       d="m 467.14285,638.79077 c 0,237.08795 -192.19776,429.28573 -429.285707,429.28573 -237.087953,0 -429.285703,-192.19778 -429.285703,-429.28573 0,-237.08795 192.19775,-429.2857 429.285703,-429.2857 237.087947,0 429.285707,192.19775 429.285707,429.2857 z"
       transform="matrix(0.89963949,0,0,0.89963949,46.932876,107.24288)" />
    <path
       sodipodi:type="arc"
       style="fill:#000000;fill-opacity:0;stroke:#000000;stroke-width:1;stroke-miterlimit:4;stroke-opacity:1;stroke-dasharray:none;stroke-dashoffset:0"
       id="path2987"
       sodipodi:cx="230"
       sodipodi:cy="668.07648"
       sodipodi:rx="172.85715"
       sodipodi:ry="172.85715"
       d="m 402.85715,668.07648 c 0,95.46636 -77.39078,172.85714 -172.85715,172.85714 -95.46637,0 -172.857147,-77.39078 -172.857147,-172.85714 0,-95.46637 77.390777,-172.85715 172.857147,-172.85715 95.46637,0 172.85715,77.39078 172.85715,172.85715 z" />
    <flowRoot
       xml:space="preserve"
       id="flowRoot2991-3-9"
       style="font-size:24px;font-style:normal;font-weight:bold;line-height:125%;letter-spacing:0px;word-spacing:0px;fill:#000000;fill-opacity:1;stroke:none;font-family:Sans;-inkscape-font-specification:Sans Bold"
       transform="translate(947.71484,-34.31621)"><flowRegion
         id="flowRegion2993-6-1"><rect
           id="rect2995-7-2"
           width="178.57143"
           height="170"
           x="-725.71429"
           y="535.2193"
           style="font-size:24px;font-weight:bold;-inkscape-font-specification:Sans Bold" /></flowRegion><flowPara
         id="flowPara2997-5-7">h</flowPara></flowRoot>    <flowRoot
       xml:space="preserve"
       id="flowRoot3862"
       style="font-size:12px;font-style:normal;font-weight:normal;line-height:125%;letter-spacing:0px;word-spacing:0px;fill:#000000;fill-opacity:1;stroke:none;font-family:Sans"><flowRegion
         id="flowRegion3864"><rect
           id="rect3866"
           width="48.57143"
           height="32.857143"
           x="-615.71429"
           y="635.2193" /></flowRegion><flowPara
         id="flowPara3868" /></flowRoot>    <flowRoot
       xml:space="preserve"
       id="flowRoot2991-3-3-9"
       style="font-size:24px;font-style:normal;font-weight:normal;line-height:125%;letter-spacing:0px;word-spacing:0px;fill:#000000;fill-opacity:1;stroke:none;font-family:Sans"
       transform="translate(565.93285,1.201447)"><flowRegion
         id="flowRegion2993-6-5-3"><rect
           id="rect2995-7-6-6"
           width="178.57143"
           height="170"
           x="-725.71429"
           y="535.2193"
           style="font-size:24px" /></flowRegion><flowPara
         id="flowPara2997-5-2-0">u</flowPara></flowRoot>    <flowRoot
       xml:space="preserve"
       id="flowRoot2991-3-3-6"
       style="font-size:24px;font-style:normal;font-weight:normal;line-height:125%;letter-spacing:0px;word-spacing:0px;fill:#000000;fill-opacity:1;stroke:none;font-family:Sans"
       transform="translate(769.28606,0.17279588)"><flowRegion
         id="flowRegion2993-6-5-2"><rect
           id="rect2995-7-6-61"
           width="178.57143"
           height="170"
           x="-725.71429"
           y="535.2193"
           style="font-size:24px" /></flowRegion><flowPara
         id="flowPara2997-5-2-8">b<flowSpan
   style="font-size:65.00091553%;baseline-shift:sub"
   id="flowSpan3935">1</flowSpan></flowPara></flowRoot>    <path
       sodipodi:type="arc"
       style="fill:#000000;fill-opacity:1;stroke:#000000;stroke-width:1;stroke-miterlimit:4;stroke-opacity:1;stroke-dasharray:none;stroke-dashoffset:0"
       id="path3074-7"
       sodipodi:cx="-775.71429"
       sodipodi:cy="446.64789"
       sodipodi:rx="7.1428571"
       sodipodi:ry="7.1428571"
       d="m -768.57144,446.64789 c 0,3.94489 -3.19796,7.14286 -7.14285,7.14286 -3.9449,0 -7.14286,-3.19797 -7.14286,-7.14286 0,-3.94489 3.19796,-7.14286 7.14286,-7.14286 3.94489,0 7.14285,3.19797 7.14285,7.14286 z"
       transform="matrix(1.5598108,0,0,1.5628964,1307.5652,81.145298)" />
    <flowRoot
       xml:space="preserve"
       id="flowRoot2991-3-3-6-2"
       style="font-size:24px;font-style:normal;font-weight:normal;line-height:125%;letter-spacing:0px;word-spacing:0px;fill:#000000;fill-opacity:1;stroke:none;font-family:Sans"
       transform="translate(1087.1074,-18.543693)"><flowRegion
         id="flowRegion2993-6-5-2-0"><rect
           id="rect2995-7-6-61-2"
           width="178.57143"
           height="170"
           x="-725.71429"
           y="535.2193"
           style="font-size:24px" /></flowRegion><flowPara
         id="flowPara2997-5-2-8-3">b<flowSpan
   style="font-size:65.00091553%;baseline-shift:sub"
   id="flowSpan3967">2</flowSpan></flowPara></flowRoot>    <flowRoot
       xml:space="preserve"
       id="flowRoot2991-3-3-6-5"
       style="font-size:24px;font-style:normal;font-weight:normal;line-height:125%;letter-spacing:0px;word-spacing:0px;fill:#000000;fill-opacity:1;stroke:none;font-family:Sans"
       transform="translate(1120.4175,189.67109)"><flowRegion
         id="flowRegion2993-6-5-2-9"><rect
           id="rect2995-7-6-61-22"
           width="178.57143"
           height="170"
           x="-725.71429"
           y="535.2193"
           style="font-size:24px" /></flowRegion><flowPara
         id="flowPara2997-5-2-8-8">b<flowSpan
   style="font-size:65.00091553%;baseline-shift:sub"
   id="flowSpan3984">3</flowSpan></flowPara></flowRoot>    <path
       sodipodi:type="arc"
       style="fill:#000000;fill-opacity:1;stroke:#000000;stroke-width:1;stroke-miterlimit:4;stroke-opacity:1;stroke-dasharray:none;stroke-dashoffset:0"
       id="path3074-7-0"
       sodipodi:cx="-775.71429"
       sodipodi:cy="446.64789"
       sodipodi:rx="7.1428571"
       sodipodi:ry="7.1428571"
       d="m -768.57144,446.64789 c 0,3.94489 -3.19796,7.14286 -7.14285,7.14286 -3.9449,0 -7.14286,-3.19797 -7.14286,-7.14286 0,-3.94489 3.19796,-7.14286 7.14286,-7.14286 3.94489,0 7.14285,3.19797 7.14285,7.14286 z"
       transform="matrix(1.5598108,0,0,1.5628964,1293.332,-121.56084)" />
    <path
       sodipodi:type="arc"
       style="fill:#000000;fill-opacity:1;stroke:#000000;stroke-width:1;stroke-miterlimit:4;stroke-opacity:1;stroke-dasharray:none;stroke-dashoffset:0"
       id="path3074-7-9"
       sodipodi:cx="-775.71429"
       sodipodi:cy="446.64789"
       sodipodi:rx="7.1428571"
       sodipodi:ry="7.1428571"
       d="m -768.57144,446.64789 c 0,3.94489 -3.19796,7.14286 -7.14285,7.14286 -3.9449,0 -7.14286,-3.19797 -7.14286,-7.14286 0,-3.94489 3.19796,-7.14286 7.14286,-7.14286 3.94489,0 7.14285,3.19797 7.14285,7.14286 z"
       transform="matrix(1.5598108,0,0,1.5628964,1575.3562,-137.46734)" />
    <path
       sodipodi:type="arc"
       style="fill:#000000;fill-opacity:1;stroke:#000000;stroke-width:1;stroke-miterlimit:4;stroke-opacity:1;stroke-dasharray:none;stroke-dashoffset:0"
       id="path3074-7-3"
       sodipodi:cx="-775.71429"
       sodipodi:cy="446.64789"
       sodipodi:rx="7.1428571"
       sodipodi:ry="7.1428571"
       d="m -768.57144,446.64789 c 0,3.94489 -3.19796,7.14286 -7.14285,7.14286 -3.9449,0 -7.14286,-3.19797 -7.14286,-7.14286 0,-3.94489 3.19796,-7.14286 7.14286,-7.14286 3.94489,0 7.14285,3.19797 7.14285,7.14286 z"
       transform="matrix(1.5598108,0,0,1.5628964,1605.2374,20.819119)" />
    <path
       sodipodi:type="arc"
       style="fill:#000000;fill-opacity:1;stroke:#000000;stroke-width:1;stroke-miterlimit:4;stroke-opacity:1;stroke-dasharray:none;stroke-dashoffset:0"
       id="path3074-7-6"
       sodipodi:cx="-775.71429"
       sodipodi:cy="446.64789"
       sodipodi:rx="7.1428571"
       sodipodi:ry="7.1428571"
       d="m -768.57144,446.64789 c 0,3.94489 -3.19796,7.14286 -7.14285,7.14286 -3.9449,0 -7.14286,-3.19797 -7.14286,-7.14286 0,-3.94489 3.19796,-7.14286 7.14286,-7.14286 3.94489,0 7.14285,3.19797 7.14285,7.14286 z"
       transform="matrix(1.5598108,0,0,1.5628964,1486.5515,136.51957)" />
    <flowRoot
       xml:space="preserve"
       id="flowRoot2991-3-3-6-0"
       style="font-size:24px;font-style:normal;font-weight:normal;line-height:125%;letter-spacing:0px;word-spacing:0px;fill:#000000;fill-opacity:1;stroke:none;font-family:Sans"
       transform="translate(973.86368,305.76655)"><flowRegion
         id="flowRegion2993-6-5-2-6"><rect
           id="rect2995-7-6-61-26"
           width="178.57143"
           height="170"
           x="-725.71429"
           y="535.2193"
           style="font-size:24px" /></flowRegion><flowPara
         id="flowPara2997-5-2-8-1">b<flowSpan
   style="font-size:65.00091553%;baseline-shift:sub"
   id="flowSpan3271">4</flowSpan></flowPara></flowRoot>    <flowRoot
       xml:space="preserve"
       id="flowRoot2991-3-3-6-0-7"
       style="font-size:24px;font-style:normal;font-weight:normal;line-height:125%;letter-spacing:0px;word-spacing:0px;fill:#000000;fill-opacity:1;stroke:none;font-family:Sans"
       transform="translate(781.14829,226.6711)"><flowRegion
         id="flowRegion2993-6-5-2-6-9"><rect
           id="rect2995-7-6-61-26-2"
           width="178.57143"
           height="170"
           x="-725.71429"
           y="535.2193"
           style="font-size:24px" /></flowRegion><flowPara
         id="flowPara2997-5-2-8-1-0">b<flowSpan
   style="font-size:65.00091553%;baseline-shift:sub"
   id="flowSpan3303">5</flowSpan></flowPara></flowRoot>    <path
       sodipodi:type="arc"
       style="fill:#000000;fill-opacity:0.31372549;stroke:#000000;stroke-width:1;stroke-miterlimit:4;stroke-opacity:0.31372549;stroke-dasharray:none;stroke-dashoffset:0"
       id="path3074-7-7-5"
       sodipodi:cx="-775.71429"
       sodipodi:cy="446.64789"
       sodipodi:rx="7.1428571"
       sodipodi:ry="7.1428571"
       d="m -768.57144,446.64789 c 0,3.94489 -3.19796,7.14286 -7.14285,7.14286 -3.9449,0 -7.14286,-3.19797 -7.14286,-7.14286 0,-3.94489 3.19796,-7.14286 7.14286,-7.14286 3.94489,0 7.14285,3.19797 7.14285,7.14286 z"
       transform="matrix(1.5598108,0,0,1.5628964,1074.0116,-124.46265)" />
    <path
       sodipodi:type="arc"
       style="fill:#0000ff;fill-opacity:1;stroke:#0000ff;stroke-width:1;stroke-miterlimit:4;stroke-opacity:1;stroke-dasharray:none;stroke-dashoffset:0"
       id="path3074-7-7-5-9"
       sodipodi:cx="-775.71429"
       sodipodi:cy="446.64789"
       sodipodi:rx="7.1428571"
       sodipodi:ry="7.1428571"
       d="m -768.57144,446.64789 c 0,3.94489 -3.19796,7.14286 -7.14285,7.14286 -3.9449,0 -7.14286,-3.19797 -7.14286,-7.14286 0,-3.94489 3.19796,-7.14286 7.14286,-7.14286 3.94489,0 7.14285,3.19797 7.14285,7.14286 z"
       transform="matrix(1.2827849,0,0,1.2853225,1152.7238,67.16445)" />
    <path
       style="fill:none;stroke:#0000ff;stroke-width:1px;stroke-linecap:butt;stroke-linejoin:miter;stroke-opacity:1"
       d="m 567.03436,449.15776 c 0,0 96.74854,-32.19728 141.0379,-57.58402"
       id="path4225"
       inkscape:connector-curvature="0"
       transform="translate(-305.66154,263.98328)" />
    <path
       style="fill:none;stroke:#0000ff;stroke-width:1px;stroke-linecap:butt;stroke-linejoin:miter;stroke-opacity:1"
       d="m 363.23297,391.82574 c 0,0 179.21877,10.84951 246.69705,-143.86623"
       id="path4170"
       inkscape:connector-curvature="0"
       transform="translate(-305.66154,263.98328)" />
    <path
       style="fill:none;stroke:#ff0000;stroke-width:1px;stroke-linecap:butt;stroke-linejoin:miter;stroke-opacity:1"
       d="m 453.17466,434.50511 c 0,0 30.35581,49.54015 113.8597,14.65265"
       id="path4223"
       inkscape:connector-curvature="0"
       transform="translate(-305.66154,263.98328)" />
    <path
       style="fill:none;stroke:#00ff00;stroke-width:1px;stroke-linecap:butt;stroke-linejoin:miter;stroke-opacity:1"
       d="m 567.03436,449.15776 38.24905,21.68104 57.98275,-35.35534 37.66525,19.41676"
       id="path5020"
       inkscape:connector-curvature="0"
       transform="translate(-305.66154,263.98328)" />
    <path
       style="fill:none;stroke:#00ff00;stroke-width:1px;stroke-linecap:butt;stroke-linejoin:miter;stroke-opacity:1"
       d="m 453.17466,434.50511 22.0011,78.7601 46.66905,-2.82843 -7.07107,38.18377 67.47177,21.98012"
       id="path5022"
       inkscape:connector-curvature="0"
       transform="translate(-305.66154,263.98328)" />
    <path
       style="fill:none;stroke:#0000ff;stroke-width:1px;stroke-linecap:butt;stroke-linejoin:miter;stroke-opacity:1"
       d="m 472.82059,565.17283 c 0,0 -41.16259,-90.52392 -7.3829,-188.5955"
       id="path4179"
       inkscape:connector-curvature="0"
       transform="translate(-305.66154,263.98328)" />
    <path
       style="fill:none;stroke:#ff0000;stroke-width:1px;stroke-linecap:butt;stroke-linejoin:miter;stroke-opacity:1"
       d="m 657.91483,526.29682 c 0,0 -88.2503,0.78533 -88.11853,-77.54093"
       id="path4183"
       inkscape:connector-curvature="0"
       transform="translate(-305.66154,263.98328)" />
    <path
       sodipodi:type="arc"
       style="fill:#ff0000;fill-opacity:1;stroke:#ff0000;stroke-width:1;stroke-miterlimit:4;stroke-opacity:1;stroke-dasharray:none;stroke-dashoffset:0"
       id="path3074-7-7-5-9-2"
       sodipodi:cx="-775.71429"
       sodipodi:cy="446.64789"
       sodipodi:rx="7.1428571"
       sodipodi:ry="7.1428571"
       d="m -768.57144,446.64789 c 0,3.94489 -3.19796,7.14286 -7.14285,7.14286 -3.9449,0 -7.14286,-3.19797 -7.14286,-7.14286 0,-3.94489 3.19796,-7.14286 7.14286,-7.14286 3.94489,0 7.14285,3.19797 7.14285,7.14286 z"
       transform="matrix(1.2827849,0,0,1.2853225,1142.5877,124.40181)" />
    <path
       sodipodi:type="arc"
       style="fill:#ff0000;fill-opacity:1;stroke:#ff0000;stroke-width:1;stroke-miterlimit:4;stroke-opacity:1;stroke-dasharray:none;stroke-dashoffset:0"
       id="path3074-7-7-5-9-28"
       sodipodi:cx="-775.71429"
       sodipodi:cy="446.64789"
       sodipodi:rx="7.1428571"
       sodipodi:ry="7.1428571"
       d="m -768.57144,446.64789 c 0,3.94489 -3.19796,7.14286 -7.14285,7.14286 -3.9449,0 -7.14286,-3.19797 -7.14286,-7.14286 0,-3.94489 3.19796,-7.14286 7.14286,-7.14286 3.94489,0 7.14285,3.19797 7.14285,7.14286 z"
       transform="matrix(1.2827849,0,0,1.2853225,1256.4474,139.05446)" />
    <flowRoot
       xml:space="preserve"
       id="flowRoot2991-3-3-9-97"
       style="font-size:24px;font-style:normal;font-weight:normal;line-height:125%;letter-spacing:0px;word-spacing:0px;fill:#000000;fill-opacity:1;stroke:none;font-family:Sans"
       transform="translate(838.70941,138.78355)"><flowRegion
         id="flowRegion2993-6-5-3-3"><rect
           id="rect2995-7-6-6-6"
           width="178.57143"
           height="170"
           x="-725.71429"
           y="535.2193"
           style="font-size:24px" /></flowRegion><flowPara
         id="flowPara2997-5-2-0-1">v*</flowPara></flowRoot>    <g
       id="g4172"
       transform="translate(149.9474,-17.405963)">
      <flowRoot
         transform="translate(883.9653,209.77502)"
         style="font-size:24px;font-style:normal;font-weight:normal;line-height:125%;letter-spacing:0px;word-spacing:0px;fill:#000000;fill-opacity:1;stroke:none;font-family:Sans"
         id="flowRoot2991-3-3-9-9"
         xml:space="preserve"><flowRegion
           id="flowRegion2993-6-5-3-1"><rect
             style="font-size:24px"
             y="535.2193"
             x="-725.71429"
             height="170"
             width="178.57143"
             id="rect2995-7-6-6-2" /></flowRegion><flowPara
           id="flowPara2997-5-2-0-7">v</flowPara></flowRoot>      <path
         transform="matrix(1.5598108,0,0,1.5628964,1386.5529,86.255178)"
         d="m -768.57144,446.64789 c 0,3.94489 -3.19796,7.14286 -7.14285,7.14286 -3.9449,0 -7.14286,-3.19797 -7.14286,-7.14286 0,-3.94489 3.19796,-7.14286 7.14286,-7.14286 3.94489,0 7.14285,3.19797 7.14285,7.14286 z"
         sodipodi:ry="7.1428571"
         sodipodi:rx="7.1428571"
         sodipodi:cy="446.64789"
         sodipodi:cx="-775.71429"
         id="path3074-7-7"
         style="fill:#000000;fill-opacity:0.31372549;stroke:#000000;stroke-width:1;stroke-miterlimit:4;stroke-opacity:0.31372549;stroke-dasharray:none;stroke-dashoffset:0"
         sodipodi:type="arc" />
    </g>
    <path
       style="fill:none;stroke:#000000;stroke-width:1;stroke-linecap:butt;stroke-linejoin:miter;stroke-miterlimit:4;stroke-opacity:1;stroke-dasharray:4, 4;stroke-dashoffset:0"
       d="m 169.70561,309.61845 c 0,0 317.16103,825.13625 531.2258,145.28177"
       id="path4915"
       inkscape:connector-curvature="0"
       transform="translate(-305.66154,263.98328)" />
    <path
       style="fill:none;stroke:#000000;stroke-width:1;stroke-linecap:butt;stroke-linejoin:miter;stroke-miterlimit:4;stroke-opacity:1;stroke-dasharray:4, 4;stroke-dashoffset:0"
       d="m 700.93141,454.90022 c 0,0 -18.7883,-19.64026 -68.7371,48.03009"
       id="path4917"
       inkscape:connector-curvature="0"
       transform="translate(-305.66154,263.98328)" />
  </g>
</svg>
