<?xml version="1.0" encoding="UTF-8" standalone="no"?>
<!-- Created with Inkscape (http://www.inkscape.org/) -->

<svg
   xmlns:dc="http://purl.org/dc/elements/1.1/"
   xmlns:cc="http://creativecommons.org/ns#"
   xmlns:rdf="http://www.w3.org/1999/02/22-rdf-syntax-ns#"
   xmlns:svg="http://www.w3.org/2000/svg"
   xmlns="http://www.w3.org/2000/svg"
   xmlns:sodipodi="http://sodipodi.sourceforge.net/DTD/sodipodi-0.dtd"
   xmlns:inkscape="http://www.inkscape.org/namespaces/inkscape"
   width="419.57144"
   height="424.04108"
   id="svg2"
   version="1.1"
   inkscape:version="0.48.4 r9939"
   sodipodi:docname="vd2.svg">
  <defs
     id="defs4">
    <marker
       inkscape:stockid="Arrow1Lend"
       orient="auto"
       refY="0.0"
       refX="0.0"
       id="Arrow1Lend"
       style="overflow:visible;">
      <path
         id="path4022"
         d="M 0.0,0.0 L 5.0,-5.0 L -12.5,0.0 L 5.0,5.0 L 0.0,0.0 z "
         style="fill-rule:evenodd;stroke:#000000;stroke-width:1.0pt;"
         transform="scale(0.8) rotate(180) translate(12.5,0)" />
    </marker>
    <marker
       inkscape:stockid="Arrow2Lend"
       orient="auto"
       refY="0.0"
       refX="0.0"
       id="Arrow2Lend"
       style="overflow:visible;">
      <path
         id="path4040"
         style="fill-rule:evenodd;stroke-width:0.62500000;stroke-linejoin:round;"
         d="M 8.7185878,4.0337352 L -2.2072895,0.016013256 L 8.7185884,-4.0017078 C 6.9730900,-1.6296469 6.9831476,1.6157441 8.7185878,4.0337352 z "
         transform="scale(1.1) rotate(180) translate(1,0)" />
    </marker>
    <marker
       inkscape:stockid="Arrow1Lstart"
       orient="auto"
       refY="0.0"
       refX="0.0"
       id="Arrow1Lstart"
       style="overflow:visible">
      <path
         id="path4019"
         d="M 0.0,0.0 L 5.0,-5.0 L -12.5,0.0 L 5.0,5.0 L 0.0,0.0 z "
         style="fill-rule:evenodd;stroke:#000000;stroke-width:1.0pt"
         transform="scale(0.8) translate(12.5,0)" />
    </marker>
  </defs>
  <sodipodi:namedview
     id="base"
     pagecolor="#ffffff"
     bordercolor="#666666"
     borderopacity="1.0"
     inkscape:pageopacity="0.0"
     inkscape:pageshadow="2"
     inkscape:zoom="1.4"
     inkscape:cx="115.37935"
     inkscape:cy="232.92965"
     inkscape:document-units="px"
     inkscape:current-layer="layer1"
     showgrid="false"
     inkscape:snap-object-midpoints="true"
     inkscape:object-paths="true"
     inkscape:window-width="1598"
     inkscape:window-height="862"
     inkscape:window-x="0"
     inkscape:window-y="37"
     inkscape:window-maximized="0"
     fit-margin-top="0"
     fit-margin-left="0"
     fit-margin-right="0"
     fit-margin-bottom="0" />
  <metadata
     id="metadata7">
    <rdf:RDF>
      <cc:Work
         rdf:about="">
        <dc:format>image/svg+xml</dc:format>
        <dc:type
           rdf:resource="http://purl.org/dc/dcmitype/StillImage" />
        <dc:title></dc:title>
      </cc:Work>
    </rdf:RDF>
  </metadata>
  <g
     inkscape:label="Layer 1"
     inkscape:groupmode="layer"
     id="layer1"
     transform="translate(-170.92857,-327.39252)">
    <path
       style="fill:none;stroke:#c80000;stroke-width:1;stroke-linecap:butt;stroke-linejoin:miter;stroke-opacity:1;stroke-miterlimit:4;stroke-dasharray:4,4;stroke-dashoffset:0"
       d="m 376.07142,536.29078 -1.01258,214.5679"
       id="path3868"
       inkscape:connector-curvature="0" />
    <path
       style="fill:none;stroke:#c80000;stroke-width:1;stroke-linecap:butt;stroke-linejoin:miter;stroke-opacity:1;stroke-miterlimit:4;stroke-dasharray:4,4;stroke-dashoffset:0"
       d="M 376.07142,536.29078 194.05662,446.89469"
       id="path3844"
       inkscape:connector-curvature="0" />
    <path
       style="fill:none;stroke:#c80000;stroke-width:1;stroke-linecap:butt;stroke-linejoin:miter;stroke-opacity:1;stroke-miterlimit:4;stroke-dasharray:4,4;stroke-dashoffset:0"
       d="M 376.07142,536.29078 561.07859,435.42589"
       id="path3866"
       inkscape:connector-curvature="0" />
    <path
       style="fill:none;stroke:#c8c8c8;stroke-width:1px;stroke-linecap:butt;stroke-linejoin:miter;stroke-opacity:1;marker-start:none;marker-end:url(#Arrow2Lend)"
       d="m 41.307982,338.43854 11.549161,-35.82603 56.428567,5.71428 10,-61.42857 44.07143,-8.35713"
       id="path3973"
       inkscape:connector-curvature="0"
       transform="translate(170.92857,327.39252)" />
    <path
       style="fill:none;stroke:#c8c8c8;stroke-width:1px;stroke-linecap:butt;stroke-linejoin:miter;stroke-opacity:1;marker-end:url(#Arrow2Lend)"
       d="m 366.61033,352.84679 -53.0389,-11.66286 5,-27.14285 L 260,285.46965 246.92857,238.54109"
       id="path3975"
       inkscape:connector-curvature="0"
       transform="translate(170.92857,327.39252)" />
    <path
       sodipodi:type="arc"
       style="fill:#000000;fill-opacity:0;stroke:#000000;stroke-width:1;stroke-miterlimit:4;stroke-opacity:1;stroke-dasharray:none;stroke-dashoffset:0"
       id="path2985"
       sodipodi:cx="380.71429"
       sodipodi:cy="541.64789"
       sodipodi:rx="209.28572"
       sodipodi:ry="209.28572"
       d="m 590.00002,541.64789 c 0,115.58531 -93.70041,209.28572 -209.28573,209.28572 -115.58531,0 -209.28572,-93.70041 -209.28572,-209.28572 0,-115.58531 93.70041,-209.28572 209.28572,-209.28572 115.58532,0 209.28573,93.70041 209.28573,209.28572 z" />
    <path
       style="fill:none;stroke:#c8c8c8;stroke-width:1px;stroke-linecap:butt;stroke-linejoin:miter;stroke-opacity:1;marker-end:url(#Arrow2Lend)"
       d="m 201.19244,5.1428599 -26.90673,31.7553591 72.85715,37.857143 -43.57143,39.999998 1.57142,50.2143"
       id="path3971"
       inkscape:connector-curvature="0"
       transform="translate(170.92857,327.39252)" />
    <path
       style="fill:none;stroke:#00af00;stroke-width:1px;stroke-linecap:butt;stroke-linejoin:miter;stroke-opacity:1"
       d="m 376.07142,492.36218 0,43.9286 41.78572,29.64283"
       id="path3870"
       inkscape:connector-curvature="0" />
    <path
       style="fill:none;stroke:#00af00;stroke-width:1px;stroke-linecap:butt;stroke-linejoin:miter;stroke-opacity:1"
       d="m 334.28571,565.93361 41.78571,-29.64283"
       id="path3872"
       inkscape:connector-curvature="0" />
    <path
       sodipodi:type="arc"
       style="fill:#c80000;fill-opacity:1;stroke:#c80000;stroke-width:1;stroke-miterlimit:4;stroke-opacity:1;stroke-dasharray:none;stroke-dashoffset:0"
       id="path2987"
       sodipodi:cx="362.85715"
       sodipodi:cy="533.79077"
       sodipodi:rx="3.5714285"
       sodipodi:ry="3.5714285"
       d="m 366.42858,533.79077 c 0,1.97245 -1.59899,3.57143 -3.57143,3.57143 -1.97245,0 -3.57143,-1.59898 -3.57143,-3.57143 0,-1.97244 1.59898,-3.57143 3.57143,-3.57143 1.97244,0 3.57143,1.59899 3.57143,3.57143 z"
       transform="matrix(1.2631579,0,0,1.2631579,-82.274454,-137.97125)" />
    <path
       sodipodi:type="arc"
       style="fill:#000000;fill-opacity:1;stroke:#000000;stroke-width:1;stroke-miterlimit:4;stroke-opacity:1;stroke-dasharray:none;stroke-dashoffset:0"
       id="path2987-3"
       sodipodi:cx="362.85715"
       sodipodi:cy="533.79077"
       sodipodi:rx="3.5714285"
       sodipodi:ry="3.5714285"
       d="m 366.42858,533.79077 c 0,1.97245 -1.59899,3.57143 -3.57143,3.57143 -1.97245,0 -3.57143,-1.59898 -3.57143,-3.57143 0,-1.97244 1.59898,-3.57143 3.57143,-3.57143 1.97244,0 3.57143,1.59899 3.57143,3.57143 z"
       transform="matrix(1.2631579,0,0,1.2631579,-124.06016,-108.32842)" />
    <path
       sodipodi:type="arc"
       style="fill:#000000;fill-opacity:1;stroke:#000000;stroke-width:1;stroke-miterlimit:4;stroke-opacity:1;stroke-dasharray:none;stroke-dashoffset:0"
       id="path2987-6"
       sodipodi:cx="362.85715"
       sodipodi:cy="533.79077"
       sodipodi:rx="3.5714285"
       sodipodi:ry="3.5714285"
       d="m 366.42858,533.79077 c 0,1.97245 -1.59899,3.57143 -3.57143,3.57143 -1.97245,0 -3.57143,-1.59898 -3.57143,-3.57143 0,-1.97244 1.59898,-3.57143 3.57143,-3.57143 1.97244,0 3.57143,1.59899 3.57143,3.57143 z"
       transform="matrix(1.2631579,0,0,1.2631579,-82.274454,-181.89985)" />
    <path
       sodipodi:type="arc"
       style="fill:#000000;fill-opacity:1;stroke:#000000;stroke-width:1;stroke-miterlimit:4;stroke-opacity:1;stroke-dasharray:none;stroke-dashoffset:0"
       id="path2987-7"
       sodipodi:cx="362.85715"
       sodipodi:cy="533.79077"
       sodipodi:rx="3.5714285"
       sodipodi:ry="3.5714285"
       d="m 366.42858,533.79077 c 0,1.97245 -1.59899,3.57143 -3.57143,3.57143 -1.97245,0 -3.57143,-1.59898 -3.57143,-3.57143 0,-1.97244 1.59898,-3.57143 3.57143,-3.57143 1.97244,0 3.57143,1.59899 3.57143,3.57143 z"
       transform="matrix(1.2631579,0,0,1.2631579,-40.488729,-108.32842)" />
    <path
       style="fill:none;stroke:#000000;stroke-width:1px;stroke-linecap:butt;stroke-linejoin:miter;stroke-opacity:1"
       d="m 376.07142,492.36218 -41.78571,73.57143 83.57143,0 z"
       id="path3789"
       inkscape:connector-curvature="0" />
    <path
       sodipodi:type="arc"
       style="fill:#000000;fill-opacity:1;stroke:#000000;stroke-width:1;stroke-miterlimit:4;stroke-opacity:1;stroke-dasharray:none;stroke-dashoffset:0"
       id="path2987-3-5"
       sodipodi:cx="362.85715"
       sodipodi:cy="533.79077"
       sodipodi:rx="3.5714285"
       sodipodi:ry="3.5714285"
       d="m 366.42858,533.79077 c 0,1.97245 -1.59899,3.57143 -3.57143,3.57143 -1.97245,0 -3.57143,-1.59898 -3.57143,-3.57143 0,-1.97244 1.59898,-3.57143 3.57143,-3.57143 1.97244,0 3.57143,1.59899 3.57143,3.57143 z"
       transform="matrix(1.2631579,0,0,1.2631579,-86.224865,-341.72665)" />
    <path
       sodipodi:type="arc"
       style="fill:#000000;fill-opacity:1;stroke:#000000;stroke-width:1;stroke-miterlimit:4;stroke-opacity:1;stroke-dasharray:none;stroke-dashoffset:0"
       id="path2987-3-3"
       sodipodi:cx="362.85715"
       sodipodi:cy="533.79077"
       sodipodi:rx="3.5714285"
       sodipodi:ry="3.5714285"
       d="m 366.42858,533.79077 c 0,1.97245 -1.59899,3.57143 -3.57143,3.57143 -1.97245,0 -3.57143,-1.59898 -3.57143,-3.57143 0,-1.97244 1.59898,-3.57143 3.57143,-3.57143 1.97244,0 3.57143,1.59899 3.57143,3.57143 z"
       transform="matrix(1.2631579,0,0,1.2631579,79.193028,5.9772775)" />
    <path
       sodipodi:type="arc"
       style="fill:#000000;fill-opacity:1;stroke:#000000;stroke-width:1;stroke-miterlimit:4;stroke-opacity:1;stroke-dasharray:none;stroke-dashoffset:0"
       id="path2987-3-56"
       sodipodi:cx="362.85715"
       sodipodi:cy="533.79077"
       sodipodi:rx="3.5714285"
       sodipodi:ry="3.5714285"
       d="m 366.42858,533.79077 c 0,1.97245 -1.59899,3.57143 -3.57143,3.57143 -1.97245,0 -3.57143,-1.59898 -3.57143,-3.57143 0,-1.97244 1.59898,-3.57143 3.57143,-3.57143 1.97244,0 3.57143,1.59899 3.57143,3.57143 z"
       transform="matrix(1.2631579,0,0,1.2631579,-246.10932,-8.4309662)" />
  </g>
</svg>
